<svg xmlns="http://www.w3.org/2000/svg" x="0px" y="0px"
width="35" height="35"
viewBox="0 0 172 172"
style=" fill:#000000;"><g fill="none" fill-rule="nonzero" stroke="none" stroke-width="1" stroke-linecap="butt" stroke-linejoin="miter" stroke-miterlimit="10" stroke-dasharray="" stroke-dashoffset="0" font-family="none" font-weight="none" font-size="none" text-anchor="none" style="mix-blend-mode: normal"><path d="M0,172v-172h172v172z" fill="none"></path><g fill="#3554ff"><path d="M41.20833,21.5c-10.82086,0 -19.70833,8.88748 -19.70833,19.70833v89.58333c0,10.82086 8.88748,19.70833 19.70833,19.70833h89.58333c10.82086,0 19.70833,-8.88748 19.70833,-19.70833v-89.58333c0,-10.82086 -8.88748,-19.70833 -19.70833,-19.70833zM41.20833,32.25h89.58333c5.01031,0 8.95833,3.94802 8.95833,8.95833v89.58333c0,5.01031 -3.94802,8.95833 -8.95833,8.95833h-89.58333c-5.01031,0 -8.95833,-3.94802 -8.95833,-8.95833v-89.58333c0,-5.01031 3.94802,-8.95833 8.95833,-8.95833zM123.52002,57.28434c-1.39592,0.04068 -2.72121,0.62301 -3.69531,1.6237l-46.36637,46.36637l-17.69971,-17.69971c-1.34815,-1.40412 -3.35005,-1.96971 -5.23364,-1.47866c-1.88359,0.49105 -3.35456,1.96202 -3.84561,3.84561c-0.49105,1.88359 0.07455,3.88549 1.47866,5.23364l21.5,21.5c2.0991,2.09823 5.50149,2.09823 7.60059,0l50.16667,-50.16667c1.58706,-1.54566 2.06336,-3.90666 1.19966,-5.94673c-0.8637,-2.04007 -2.89048,-3.34134 -5.10493,-3.27756z"></path></g></g></svg>