<svg width="94" height="95" viewBox="0 0 90 113" fill="none" xmlns="http://www.w3.org/2000/svg">
<path fill-rule="evenodd" clip-rule="evenodd" d="M76.3075 39.7232L61.1326 24.6665L66.8563 18.9805L82.0325 34.0385L76.3075 39.7232ZM68.1926 43.8226C67.3401 44.6705 66.7801 45.7221 66.5738 46.8655C65.9601 50.2572 63.4176 52.3529 60.9638 54.7911L59.9688 55.7781L59.8413 55.6515L59.4888 55.2977L51.7139 47.5744C51.8826 47.5868 52.3139 47.5359 52.4851 47.5222C53.4714 47.4403 55.2726 46.9909 56.0739 46.6656C56.7026 46.4099 57.0039 45.6973 56.7464 45.074C56.4901 44.4496 55.7726 44.1504 55.1439 44.4061C51.9801 45.691 49.7951 45.295 46.3089 42.2074L46.2439 42.1429L46.2052 42.1056L45.1702 41.0765L47.1651 39.1012C47.6451 38.6245 47.6451 37.8523 47.1651 37.3756C46.6852 36.8989 45.9077 36.8989 45.4277 37.3756L42.5664 40.2111L42.5639 40.2124L42.5614 40.2149L36.8102 45.9269C35.8464 46.8841 34.2789 46.8841 33.3152 45.9269C32.849 45.4639 32.5915 44.8468 32.5915 44.1913C32.5915 43.5358 32.849 42.9201 33.3152 42.4557L42.4714 33.3619C42.9214 32.9149 43.4227 32.5214 43.9602 32.1924C45.2389 31.4078 46.7139 30.9931 48.2289 30.9931C49.3851 30.9931 50.5501 31.2414 51.5964 31.7144C53.9776 32.7871 56.8076 32.2867 58.6389 30.4692L61.1126 28.0992L72.6238 39.5097L68.1926 43.8226ZM59.0001 60.6149C58.6839 60.929 58.2639 61.1028 57.8176 61.1028C57.3701 61.1028 56.9501 60.929 56.6339 60.6137L45.9314 49.9829C45.4514 49.5061 44.6739 49.5074 44.1939 49.9841C43.7139 50.4608 43.7139 51.233 44.1939 51.7098L56.0301 63.4691C56.3464 63.7832 56.5201 64.2016 56.5201 64.6448C56.5201 65.0893 56.3464 65.5076 56.0314 65.8205C55.3764 66.4698 54.3151 66.4698 53.6626 65.8217L51.2814 63.4555L51.2451 63.4182L51.2326 63.4083L39.8964 52.1058C39.4164 51.6291 38.6377 51.6291 38.1577 52.1058C37.6777 52.5825 37.6777 53.3547 38.1577 53.8315L49.6589 65.2606C49.9639 65.571 50.1326 65.9831 50.1326 66.4189C50.1326 66.8633 49.9576 67.2805 49.6426 67.5946C48.9901 68.2426 47.9289 68.2426 47.2764 67.5946L37.1252 57.5174C36.6452 57.0407 35.8664 57.0407 35.3864 57.5174C34.9064 57.9942 34.9064 58.7676 35.3864 59.2431L42.6027 66.4425L42.6089 66.4499C42.9252 66.7615 43.0989 67.1787 43.0989 67.6219C43.0989 68.0663 42.9239 68.4835 42.6077 68.7988C42.2914 69.1129 41.8714 69.2867 41.4239 69.2867L41.1077 69.2557C41.3064 67.9248 40.8914 66.5207 39.8627 65.4989C39.0264 64.6684 37.9164 64.2115 36.7339 64.2115L36.6364 64.214L36.6352 64.1879L36.6377 64.1209L36.6327 63.9334V63.9185L36.6089 63.6318V63.6255L36.5689 63.3537L36.5639 63.3276L36.5052 63.0545C36.0252 61.1438 34.2852 59.7298 32.2127 59.7298L32.0215 59.7347L32.0252 59.5932C32.0252 57.1661 30.044 55.2008 27.6002 55.2008L27.499 55.2033L27.5052 54.9786C27.5052 52.6123 25.619 50.6843 23.259 50.5924C22.6002 48.981 22.214 47.2305 21.8752 45.4254C21.6452 44.2 20.6215 43.1783 19.7215 42.2857L17.139 39.727L29.264 27.7206L32.539 30.9745C33.719 32.1477 35.3277 32.7746 36.9739 32.7746C37.7114 32.7746 38.4564 32.6492 39.1752 32.3885C39.5239 32.2631 39.8839 32.1738 40.2489 32.1154L31.5777 40.7288C30.6465 41.6537 30.1327 42.8828 30.1327 44.1913C30.1327 45.4986 30.6465 46.7289 31.5765 47.6526C32.5377 48.6073 33.8002 49.084 35.0627 49.084C36.3252 49.084 37.5877 48.6073 38.5489 47.6526L43.4327 42.8021L44.4677 43.8301L44.5527 43.9157L44.5539 43.917L44.5889 43.9505L59.0001 58.2636C59.3164 58.5777 59.4901 58.9948 59.4901 59.4393C59.4901 59.8837 59.3164 60.3008 59.0001 60.6149ZM38.1239 69.9857C37.7527 70.3544 37.2589 70.558 36.7339 70.558C36.2102 70.558 35.7152 70.3544 35.3439 69.9857C34.5777 69.2259 34.5777 67.9869 35.3439 67.2259C35.7277 66.8447 36.2314 66.6548 36.7339 66.6548C37.2377 66.6548 37.7402 66.8447 38.1239 67.2259C38.8902 67.9869 38.8902 69.2259 38.1239 69.9857ZM30.2427 64.1346C30.2427 63.0569 31.1227 62.1842 32.2065 62.1842C33.2915 62.1842 34.1714 63.0569 34.1714 64.1346C34.1714 65.2122 33.2915 66.0862 32.2065 66.0862C31.1227 66.0862 30.2427 65.2122 30.2427 64.1346ZM27.594 61.5572C26.5102 61.5572 25.6302 60.6845 25.6302 59.6069C25.6302 58.5292 26.5102 57.6565 27.594 57.6565C28.679 57.6565 29.559 58.5292 29.559 59.6069C29.559 60.6845 28.679 61.5572 27.594 61.5572ZM23.0752 56.9439C21.9902 56.9439 21.1115 56.0711 21.1115 54.9935C21.1115 53.9159 21.9902 53.0431 23.0752 53.0431C24.1602 53.0431 25.039 53.9159 25.039 54.9935C25.039 56.0711 24.1602 56.9439 23.0752 56.9439ZM13.6915 39.7344L7.9678 34.0484L23.1727 18.947L28.8965 24.633L13.6915 39.7344ZM84.6387 33.1744L67.7263 16.3908C67.2463 15.914 66.4676 15.914 65.9876 16.3908L58.5251 23.8024C58.2939 24.0309 58.1651 24.3412 58.1651 24.6665C58.1651 24.9893 58.2939 25.3009 58.5251 25.5293L59.3751 26.3735L56.9001 28.7435C55.7889 29.8447 54.0664 30.1464 52.6126 29.4909C51.2489 28.8764 49.7326 28.5511 48.2289 28.5511C46.4427 28.5511 44.6977 28.9968 43.1464 29.8398C42.5002 29.6821 41.8364 29.6014 41.1664 29.6014C40.1964 29.6014 39.2439 29.7665 38.3352 30.0955C36.8852 30.6182 35.3289 30.2941 34.2764 29.2476L31.0015 25.9961L31.504 25.4958C31.734 25.2674 31.864 24.9558 31.864 24.633C31.864 24.309 31.734 23.9986 31.504 23.7701L24.0415 16.3585C23.5615 15.8805 22.7827 15.8805 22.3027 16.3585L5.35906 33.1856C4.88031 33.6623 4.88031 34.4357 5.35906 34.9112L12.8228 42.3241C13.0528 42.5538 13.3653 42.6817 13.6915 42.6817C14.0178 42.6817 14.3303 42.5538 14.5603 42.3241L15.4165 41.4613L17.9015 44.0001C18.4478 44.5427 19.2315 45.0529 19.369 45.7929C19.719 47.6563 20.1628 49.4863 20.8403 51.1933C19.5353 51.9568 18.659 53.3659 18.659 54.9786C18.659 57.4057 20.6403 59.3735 23.0815 59.3735L23.184 59.371L23.179 59.5932C23.179 62.0203 25.159 63.9868 27.6002 63.9868L27.794 63.9818L27.7915 64.1209C27.7915 66.548 29.7727 68.5145 32.2127 68.5145L32.3152 68.512C32.2902 69.6679 32.7202 70.8324 33.6064 71.7126C34.4414 72.5419 35.5527 73 36.7339 73C37.9164 73 39.0277 72.5419 39.8627 71.7126L40.0639 71.4966C40.4989 71.648 40.9602 71.7287 41.4252 71.7287C42.5302 71.7287 43.5677 71.3004 44.3464 70.5245C44.7614 70.1135 45.0752 69.6294 45.2802 69.1017L45.5377 69.3202C46.3427 70.121 47.4014 70.5208 48.4589 70.5208C49.5176 70.5208 50.5751 70.121 51.3801 69.3202C51.8089 68.8956 51.9989 68.2997 52.2026 67.7522C52.9239 68.2737 53.9926 68.7479 54.8464 68.7479C55.9039 68.7479 56.9539 68.3395 57.7689 67.5474C58.4889 66.8484 58.9751 66.1247 58.9664 64.8422C58.9651 64.5107 58.7626 63.7919 58.6476 63.4604C59.4351 63.3015 60.1588 62.9191 60.7388 62.3406C61.5188 61.5659 61.9488 60.5355 61.9488 59.4393C61.9488 58.8011 61.8226 58.2325 61.5438 57.6677L62.7026 56.5168C65.5138 53.7247 68.2901 51.1821 68.9926 47.2963C69.1113 46.647 69.4351 46.0424 69.9313 45.5483L74.3625 41.2366L75.4388 42.313C75.6788 42.5513 75.9938 42.6705 76.3075 42.6705C76.6225 42.6705 76.9375 42.5513 77.1775 42.313L84.64 34.9013C84.87 34.6729 85 34.3613 85 34.0385C85 33.7144 84.87 33.4041 84.6387 33.1744Z" fill="url(#paint0_linear)"/>
<defs>
<linearGradient id="paint0_linear" x1="45" y1="16" x2="45" y2="73" gradientUnits="userSpaceOnUse">
<stop stop-color="#01BBE3"/>
<stop offset="1" stop-color="#006FD6"/>
</linearGradient>
</defs>
</svg>