<svg width="64" height="80" viewBox="0 0 17 22" fill="none" xmlns="http://www.w3.org/2000/svg">
<path d="M4.2333 1.05826C4.16313 1.05827 4.09584 1.08616 4.04622 1.13577C3.9966 1.18539 3.96873 1.25268 3.96872 1.32285V8.202H1.32288C1.27057 8.20202 1.21943 8.21757 1.17593 8.24664C1.13244 8.27572 1.09854 8.31702 1.07852 8.36536C1.0585 8.41369 1.05326 8.46687 1.06346 8.51819C1.07365 8.5695 1.09883 8.61665 1.13582 8.65366L8.27957 15.7974C8.32919 15.847 8.39647 15.8749 8.46663 15.8749C8.53679 15.8749 8.60408 15.847 8.6537 15.7974L15.7975 8.65366C15.8344 8.61665 15.8596 8.5695 15.8698 8.51819C15.88 8.46687 15.8748 8.41369 15.8547 8.36536C15.8347 8.31702 15.8008 8.27572 15.7573 8.24664C15.7138 8.21757 15.6627 8.20202 15.6104 8.202H12.9646V1.32285C12.9645 1.25268 12.9367 1.18539 12.887 1.13577C12.8374 1.08616 12.7701 1.05827 12.7 1.05826H4.2333ZM4.49788 1.58743H12.4354V8.46658C12.4354 8.53675 12.4633 8.60404 12.5129 8.65366C12.5625 8.70327 12.6298 8.73116 12.7 8.73117H14.9717L8.46663 15.2362L1.9616 8.73117H4.2333C4.30347 8.73116 4.37076 8.70327 4.42038 8.65366C4.47 8.60404 4.49788 8.53675 4.49788 8.46658V1.58743ZM8.46353 2.64267C8.39336 2.64349 8.32639 2.67215 8.27736 2.72235C8.22832 2.77255 8.20123 2.84017 8.20205 2.91034V3.72733C7.4539 3.85469 6.87965 4.50799 6.87965 5.29108C6.87965 6.1647 7.59406 6.87908 8.46767 6.87909C9.05531 6.87909 9.52393 7.34978 9.52393 7.93741C9.52393 8.51653 9.06813 8.9803 8.49247 8.99368C8.48287 8.99249 8.47321 8.99184 8.46353 8.9917C8.45575 8.99202 8.44799 8.99267 8.44028 8.99368C7.86577 8.97898 7.40881 8.51567 7.40881 7.93741C7.40961 7.90216 7.40335 7.86711 7.39041 7.83432C7.37746 7.80153 7.3581 7.77167 7.33345 7.74646C7.30881 7.72125 7.27937 7.70123 7.24688 7.68756C7.21438 7.67389 7.17948 7.66684 7.14423 7.66684C7.10898 7.66684 7.07408 7.67389 7.04158 7.68756C7.00909 7.70123 6.97965 7.72125 6.95501 7.74646C6.93036 7.77167 6.911 7.80153 6.89806 7.83432C6.88511 7.86711 6.87886 7.90216 6.87965 7.93741C6.87965 8.7205 7.4539 9.37381 8.20205 9.50116V10.3181C8.20129 10.3534 8.20757 10.3884 8.22052 10.4212C8.23348 10.4539 8.25285 10.4838 8.27749 10.509C8.30213 10.5342 8.33156 10.5542 8.36404 10.5678C8.39652 10.5815 8.4314 10.5885 8.46663 10.5885C8.50187 10.5885 8.53674 10.5815 8.56922 10.5678C8.6017 10.5542 8.63113 10.5342 8.65577 10.509C8.68042 10.4838 8.69978 10.4539 8.71274 10.4212C8.72569 10.3884 8.73197 10.3534 8.73121 10.3181V9.50168C9.47982 9.37499 10.0531 8.72106 10.0531 7.93741C10.0531 7.06746 9.34712 6.35587 8.47852 6.34991C8.4749 6.34966 8.47129 6.3495 8.46767 6.3494C7.88004 6.3494 7.40882 5.87869 7.40882 5.29105C7.40882 4.70607 7.87599 4.23695 8.45992 4.23273C8.46542 4.23308 8.47094 4.23324 8.47645 4.23325C9.05985 4.23825 9.52393 4.70647 9.52393 5.29108C9.52314 5.32632 9.52939 5.36137 9.54233 5.39417C9.55527 5.42696 9.57463 5.45685 9.59928 5.48206C9.62393 5.50726 9.65337 5.52728 9.68586 5.54095C9.71836 5.55463 9.75326 5.56168 9.78852 5.56168C9.82377 5.56168 9.85867 5.55463 9.89117 5.54095C9.92366 5.52728 9.9531 5.50726 9.97775 5.48206C10.0024 5.45685 10.0218 5.42696 10.0347 5.39417C10.0476 5.36137 10.0539 5.32632 10.0531 5.29108C10.0531 4.50744 9.47982 3.85353 8.73122 3.72684V2.91034C8.73163 2.87507 8.72499 2.84007 8.71168 2.8074C8.69837 2.77474 8.67867 2.74509 8.65373 2.72015C8.62879 2.69521 8.59912 2.67551 8.56646 2.6622C8.53379 2.64889 8.4988 2.64226 8.46353 2.64267V2.64267Z" fill="url(#paint0_linear)"/>
<defs>
<linearGradient id="paint0_linear" x1="8.46663" y1="1.05826" x2="8.46663" y2="15.8749" gradientUnits="userSpaceOnUse">
<stop stop-color="#01BBE3"/>
<stop offset="1" stop-color="#006FD6"/>
</linearGradient>
</defs>
</svg>
