<svg width="150" height="35" viewBox="0 0 150 35" fill="none" xmlns="http://www.w3.org/2000/svg">
<path fill-rule="evenodd" clip-rule="evenodd" d="M0 0H150V35H0V0Z" fill="white"/>
<path fill-rule="evenodd" clip-rule="evenodd" d="M30.7811 19.2452V21.2973C30.1905 21.7486 28.7649 22.27 27.1999 22.27C24.8008 22.27 22.5059 20.6708 22.5059 17.8904C22.5059 15.1799 24.8358 13.4423 27.1649 13.4423C28.6256 13.4423 29.3905 13.9286 29.9119 13.9286C30.1897 13.9286 30.364 13.6158 30.3983 13.5115H30.6068C30.6068 14.4842 30.7111 15.6321 30.8154 16.2219L30.5726 16.257C30.0862 14.7278 28.4863 13.9979 27.2692 14.0329C25.2879 14.0679 24.2094 15.8048 24.2094 17.7511C24.2094 19.8716 25.3914 21.6443 27.3384 21.6443C28.0341 21.6443 28.9726 21.47 29.2855 21.0879V19.2452C29.2855 18.2024 28.7291 17.9596 28.312 17.9596V17.7168H31.7889V17.9596C31.3726 17.9596 30.7811 18.2024 30.7811 19.2452V19.2452ZM19.934 16.1869V22.3042H19.5862L13.6758 15.1792C13.7109 15.2834 13.7451 15.457 13.7451 15.7356V20.0452C13.7451 21.5401 14.0929 21.9572 14.8579 21.9572V22.2H11.9024V21.9572C12.7023 21.9572 13.0502 21.5401 13.0502 20.0452V14.8663C13.0502 14.1372 12.4245 13.7551 11.6938 13.7551V13.5115H14.2322L19.2741 19.4888C19.2391 19.246 19.2391 19.1767 19.2391 18.9682V16.1877C19.2391 15.1457 19.2391 13.7559 18.1613 13.7559V13.5123H20.9776V13.7559C19.899 13.7551 19.934 15.1449 19.934 16.1869V16.1869ZM9.12111 15.0056V20.4973C9.12111 20.9844 9.01684 21.9579 10.0946 21.9579V22.2007H6.65271V21.9579C7.7305 21.9579 7.62622 20.9844 7.62622 20.4973V15.0056C7.62622 13.9636 7.0348 13.7551 6.61769 13.7551V13.5115H10.1639V13.7551C9.71176 13.7551 9.12111 13.9629 9.12111 15.0056ZM62.5241 22.2007L60.0557 18.0989H59.2207V20.428C59.2207 21.0537 59.1865 21.9922 60.1942 22.0272V22.2015H56.8224V22.0272C57.8651 21.9922 57.7616 21.0537 57.7616 20.463V14.9364C57.7616 13.8936 57.1702 13.6508 56.7181 13.6508V13.5115L60.5429 13.4765C62.5591 13.4423 63.4634 14.2415 63.4634 15.6655C63.4634 17.0904 62.4899 17.7511 61.6206 17.8896L63.7762 21.2965C64.054 21.7478 64.4369 21.9572 64.854 21.9914V22.2007H62.5241V22.2007ZM60.125 14.0329C59.8472 14.0329 59.4993 14.0679 59.2207 14.1022V17.5075C59.4985 17.5768 59.7079 17.5768 60.0207 17.5768C61.307 17.5768 61.8634 16.7083 61.8634 15.8048C61.8634 14.5885 61.2378 14.0329 60.125 14.0329ZM72.9534 22.2007H65.9995V21.9914C66.8345 21.9914 67.2508 21.47 67.2508 20.7401V15.2142C67.2508 14.5543 67.2508 13.685 66.1038 13.685V13.5115H72.7791C72.7791 13.8936 72.8133 15.0056 72.8833 15.6663H72.6748C72.4662 14.4158 71.4227 14.138 70.1713 14.138C69.2321 14.138 68.7107 14.2072 68.7107 14.2072V17.3347H70.6577C71.2141 17.3347 71.909 17.0227 71.9791 16.1877H72.1876C72.1184 16.7783 72.1184 18.4468 72.1876 19.0374H71.9791C71.9098 18.2032 71.2834 17.9596 70.6927 17.9596H68.7107V20.7051C68.7107 21.4015 68.78 21.5401 69.7542 21.5401H70.727C72.1184 21.505 72.7783 21.2272 73.2997 20.0794L73.5082 20.1845C73.3004 20.7051 73.0919 21.505 72.9534 22.2007ZM79.7337 22.2007V22.0264C80.2901 22.0264 80.6029 21.8179 80.6029 21.505C80.6029 21.3307 80.4644 20.9837 80.2551 20.4623L79.8388 19.4179H76.7789L76.326 20.5658C76.1875 20.9136 76.0132 21.2622 76.0132 21.5401C76.0132 21.8521 76.2575 22.0264 76.7439 22.0264V22.2007H74.1362V22.0264C74.4833 22.0264 75.0405 21.8871 75.5618 20.5658L78.3781 13.5115H79.0045L81.9593 20.393C82.2371 21.0187 82.6558 22.0272 83.3149 22.0272V22.2015H79.7337V22.2007V22.2007ZM78.273 15.3885L77.0225 18.7588H79.596L78.273 15.3885ZM90.7832 22.2007H84.3857V22.0264C85.2549 22.0264 85.6728 21.47 85.6728 20.7751V15.1107C85.6728 14.45 85.6028 13.685 84.525 13.685V13.5115H88.279V13.685C87.584 13.685 87.1311 13.9629 87.1311 14.7278V20.6358C87.1311 21.3315 87.3397 21.505 88.314 21.505H88.8003C90.191 21.435 90.6789 21.2272 91.2353 20.0452L91.4088 20.1144C91.201 20.6358 90.9567 21.4358 90.7832 22.2007ZM102.64 22.2007H95.6857V21.9914C96.5199 21.9914 96.9363 21.47 96.9363 20.7401V15.2142C96.9363 14.5543 96.9363 13.685 95.7885 13.685V13.5115H102.464C102.464 13.8936 102.499 15.0056 102.569 15.6663H102.36C102.152 14.4158 101.108 14.138 99.8568 14.138C98.9175 14.138 98.3962 14.2072 98.3962 14.2072V17.3347H100.343C100.9 17.3347 101.594 17.0227 101.664 16.1877H101.872C101.802 16.7783 101.802 18.4468 101.872 19.0374H101.664C101.594 18.2032 100.969 17.9596 100.378 17.9596H98.3962V20.7051C98.3962 21.4015 98.4646 21.5401 99.4389 21.5401H100.412C101.802 21.505 102.464 21.2272 102.985 20.0794L103.194 20.1845C102.987 20.7051 102.778 21.505 102.64 22.2007ZM107.299 22.375C106.853 22.3683 106.41 22.3098 105.978 22.2007C105.7 22.1307 105.422 21.9229 105.109 21.9229C104.866 21.9229 104.691 22.0272 104.691 22.375C104.622 22.4101 104.552 22.3751 104.482 22.4101C104.482 21.4015 104.482 20.358 104.414 19.3502L104.657 19.3152C104.865 20.4973 105.664 21.7486 107.195 21.7486C108.133 21.7486 108.759 21.2272 108.759 20.2187C108.759 18.1332 104.447 18.7238 104.447 15.7356C104.447 14.38 105.664 13.3722 107.125 13.3722C107.506 13.3722 107.889 13.4415 108.273 13.5107C108.586 13.58 108.864 13.7543 109.176 13.7543C109.316 13.7543 109.49 13.6843 109.49 13.4415H109.664C109.664 14.3099 109.732 15.1441 109.837 16.0134C109.767 16.0476 109.699 16.0476 109.594 16.0476C109.386 15.0749 108.69 13.9629 107.369 13.9629C106.535 13.9629 105.874 14.4842 105.874 15.3185C105.874 17.0904 110.221 16.8476 110.221 19.6273C110.22 21.1922 109.072 22.375 107.299 22.375V22.375ZM118.455 16.0834C118.175 14.5893 117.307 14.138 116.263 14.138H115.847V20.2545C115.847 21.228 115.812 21.9237 116.785 22.0622V22.2015H113.344V22.0272C114.491 21.9579 114.386 21.1237 114.386 20.2887V14.138H113.935C112.579 14.138 112.021 14.7979 111.744 16.0834L111.502 16.0484C111.535 15.8398 111.71 13.5115 111.71 13.5115H118.49C118.49 13.5115 118.664 15.8048 118.699 16.0142L118.455 16.0834V16.0834ZM124.055 22.2007V22.0264C124.612 22.0264 124.925 21.8179 124.925 21.505C124.925 21.3307 124.784 20.9837 124.577 20.4623L124.159 19.4179H121.099L120.648 20.5658C120.508 20.9136 120.335 21.2622 120.335 21.5401C120.335 21.8521 120.578 22.0264 121.065 22.0264V22.2007H118.458V22.0264C118.804 22.0264 119.36 21.8871 119.883 20.5658L122.698 13.5115H123.325L126.281 20.393C126.559 21.0187 126.976 22.0272 127.636 22.0272V22.2015H124.055V22.2007V22.2007ZM122.595 15.3885L121.343 18.7588H123.916L122.595 15.3885V15.3885ZM134.447 16.0834C134.169 14.5893 133.299 14.138 132.257 14.138H131.841V20.2545C131.841 21.228 131.806 21.9237 132.779 22.0622V22.2015H129.336V22.0272C130.484 21.9579 130.38 21.1237 130.38 20.2887V14.138H129.927C128.572 14.138 128.015 14.7979 127.738 16.0834L127.495 16.0484C127.53 15.8398 127.703 13.5115 127.703 13.5115H134.484C134.484 13.5115 134.657 15.8048 134.692 16.0142L134.447 16.0834V16.0834ZM142.826 22.2007H135.872V21.9914C136.706 21.9914 137.123 21.47 137.123 20.7401V15.2142C137.123 14.5543 137.123 13.685 135.976 13.685V13.5115H142.65C142.65 13.8936 142.687 15.0056 142.755 15.6663H142.547C142.338 14.4158 141.296 14.138 140.043 14.138C139.104 14.138 138.582 14.2072 138.582 14.2072V17.3347H140.529C141.086 17.3347 141.782 17.0227 141.85 16.1877H142.06C141.99 16.7783 141.99 18.4468 142.06 19.0374H141.85C141.782 18.2032 141.155 17.9596 140.564 17.9596H138.582V20.7051C138.582 21.4015 138.652 21.5401 139.627 21.5401H140.6C141.99 21.505 142.65 21.2272 143.173 20.0794L143.382 20.1845C143.174 20.7051 142.966 21.505 142.826 22.2007V22.2007Z" fill="#1A3B73"/>
<path fill-rule="evenodd" clip-rule="evenodd" d="M52.9345 21.1253C52.0995 21.9245 51.3003 22.0295 50.6739 22.0295H50.2226C49.979 22.1681 49.7704 22.2381 49.5269 22.2381H47.267C47.267 22.0295 47.3363 21.9603 47.3363 21.821C47.3363 21.6817 47.5098 21.4731 47.6141 21.4731L47.8226 21.8902C47.9619 21.821 47.9969 21.7167 47.9969 21.5782C47.9969 21.4039 47.7534 21.1961 47.7534 21.1961L47.9619 20.9868C48.0312 21.056 48.0662 21.1611 48.1362 21.1611C48.3098 21.1611 48.4141 21.091 48.4141 21.056C48.4141 20.9868 48.2748 20.8825 48.1705 20.7782C48.0312 20.6739 47.9619 20.6047 47.7876 20.6047C47.5448 20.6047 47.1269 21.2654 47.0919 21.6132L47.0227 22.2389H46.6406C46.6748 21.926 46.6063 21.6825 46.6748 21.4047C46.7098 21.3696 46.8141 21.4739 46.9184 21.5089C46.9184 21.4047 47.0577 21.3004 46.9876 21.1969C46.9526 21.0918 46.7791 20.9875 46.7791 20.9875C46.8133 20.8833 46.9184 20.6747 46.9184 20.6747C46.9184 20.6747 47.3005 20.814 47.2312 20.744C47.2312 20.6747 47.1269 20.6405 47.197 20.5704C47.3013 20.5354 47.4405 20.6747 47.5098 20.6055C47.5448 20.5354 47.5448 20.5354 47.5098 20.4662C47.4405 20.4311 47.267 20.3269 46.9884 20.3269C46.6756 20.3619 46.7448 20.4311 46.6756 20.5354C46.2935 20.5704 46.0849 20.6405 45.8764 20.6405L45.4593 21.1969C45.4935 21.4054 45.4593 21.6832 45.5636 21.8918C45.5986 21.9969 45.6678 22.1011 45.7379 22.2397H41.496C41.5652 22.1004 41.6353 21.9268 41.7388 21.8225C41.7388 21.8918 41.808 21.8918 41.8431 21.9268H42.1559C42.2602 21.9268 42.3644 21.9268 42.4337 21.8225C42.2602 21.7183 42.0508 21.6832 41.9123 21.5798C41.9123 21.4405 41.9466 21.3019 41.9466 21.1626C41.9466 20.8498 41.6687 20.7448 41.4944 20.7448C41.3201 20.7448 41.1116 20.8498 41.0423 20.9883C40.903 20.8841 40.7987 20.779 40.6594 20.7448V20.5712C40.6594 20.4669 40.6945 20.4669 40.6945 20.3627C40.938 20.2576 41.2158 20.3627 41.4244 20.4669H41.5979C41.5979 20.4319 41.5287 20.4319 41.5287 20.3627C41.3201 20.0498 40.9723 20.0148 40.5552 20.0498C40.3816 20.1191 40.3816 20.4319 40.2423 20.2584C40.0688 20.2584 39.9645 20.3284 39.8252 20.3284L39.5816 20.4327C39.5124 20.4677 39.5466 20.4677 39.5124 20.572C39.4081 20.7806 39.2696 20.9891 39.1645 21.1984C39.1645 21.407 39.0953 21.6848 39.1996 21.8934C39.2688 21.9984 39.3389 22.1369 39.4081 22.2412H33.8822C33.7079 21.9634 33.6386 21.7541 33.6386 21.407C33.6386 21.1642 33.7779 20.9899 33.8822 20.8856C33.8822 20.6763 33.8822 20.5378 34.195 20.2592C34.3343 20.0849 34.6129 20.0506 34.8207 20.1549C34.995 19.9456 35.2036 19.8771 35.4464 19.8421C35.6549 19.8421 35.8985 19.8771 36.0728 20.0514C36.0728 20.0514 36.2113 19.495 36.3156 19.2172C36.4199 18.8351 36.6634 18.3137 36.9062 17.8273C36.6284 17.0974 36.3849 16.4025 36.2806 15.6718C36.2806 15.6367 36.3148 15.5683 36.3148 15.5683L36.4191 15.4632C36.4884 15.3239 36.5234 15.1504 36.5926 15.0461C36.4884 15.0461 36.4191 15.1161 36.3841 15.1161C36.3148 15.1504 36.2448 15.2554 36.2098 15.3247C36.1755 15.2554 36.1755 15.2204 36.1755 15.1512C36.1755 15.0126 36.1413 14.8733 36.1413 14.734C36.1413 14.5947 36.2806 14.4562 36.3841 14.4562C36.3841 14.3169 36.4191 14.1092 36.4191 13.9699C36.3148 14.0391 36.0713 14.2827 36.0713 14.2827V13.657C36.1565 13.6213 36.2292 13.5609 36.2798 13.4835C36.2798 12.7536 36.314 12.0937 36.4884 11.468C36.5584 11.2945 36.6977 11.1902 36.8012 11.0509V10.5295C36.9405 10.4602 37.0448 10.321 37.149 10.2517C37.1148 10.2167 37.0097 10.2167 36.9405 10.2167C37.0656 9.93278 37.2563 9.68261 37.4969 9.48674C37.5661 9.41748 37.6712 9.31243 37.7747 9.27819C37.844 9.27819 37.844 9.31243 37.844 9.31243C38.0875 9.31243 38.2611 9.4167 38.5046 9.4167C38.4354 9.31242 38.2961 9.20815 38.1568 9.20815L38.1918 9.17391C38.3661 9.06885 38.5046 8.9996 38.7132 8.9996C38.7832 9.17391 38.9217 9.27741 38.991 9.4167L39.1303 9.52098C39.0953 9.31243 39.1996 9.06885 38.991 8.8961C39.1303 8.8961 39.4781 9.06963 39.756 9.20815C39.8602 9.20815 40.0338 9.10387 40.1731 9.06885C40.138 9.27818 40.0338 9.48596 40.0338 9.72953C40.138 9.62525 40.1731 9.52098 40.2766 9.4167C40.2766 9.27818 40.4159 9.17391 40.4509 8.9996C40.6937 8.96458 40.868 8.96458 41.0765 8.9996C40.868 9.06886 40.903 9.20815 40.903 9.31165H40.938C41.0765 9.31165 41.2509 9.20737 41.3209 9.17313C41.5294 9.17313 41.6337 9.20737 41.773 9.31165C41.6337 9.38169 41.4952 9.41592 41.4252 9.5202C41.5987 9.5202 41.8073 9.5202 42.0158 9.48596L42.0851 9.4167C42.5714 9.72953 42.7457 10.2509 42.9193 10.7723C42.85 10.7381 42.7808 10.668 42.71 10.668C42.745 10.7723 42.745 10.9458 42.8492 10.9801C43.0228 10.9801 43.0578 11.0844 43.1621 11.1886C43.3706 11.3972 43.6835 11.5707 43.7877 11.8836C44.1006 12.5442 44.0305 12.7528 44.2048 13.1691C44.1006 13.0648 43.927 13.1349 43.8228 12.9606C43.8228 13.1349 43.892 13.2734 44.0313 13.3777C44.1228 13.4429 44.2318 13.4792 44.3441 13.4819C44.4834 13.6905 44.5177 13.9683 44.5527 14.2119C44.4834 14.1769 44.4134 14.1076 44.3091 14.0726L44.2749 14.1076C44.3091 14.3162 44.3792 14.4197 44.6227 14.5247V15.0453C45.0398 15.3231 45.527 15.5675 45.9783 15.5675C46.3604 15.5675 46.8125 15.4274 47.1262 15.2547C47.0911 15.0453 47.1954 14.7683 47.3697 14.594C47.5433 14.4547 47.7518 14.4197 47.9604 14.4197C48.4125 14.4197 48.8646 14.7675 49.2467 15.1496C49.7331 15.6702 50.116 16.4359 50.2202 16.6787C50.7066 17.86 50.7066 18.867 50.7066 19.2506C50.7066 19.9113 50.6366 20.3634 50.5323 20.7798C50.7066 20.9191 50.9844 20.9541 51.1229 20.9541C51.7143 20.9541 52.2007 20.607 52.5836 20.2241C53.2092 19.5985 53.6263 18.59 53.6263 17.1659C53.6263 16.0188 53.2092 14.7333 52.0622 13.517C51.6902 13.1421 51.2547 12.8362 50.7759 12.6135C50.3237 12.5084 49.9066 12.752 49.4195 12.6477C49.0919 12.5297 48.7949 12.3399 48.5502 12.0921L48.5845 12.0229C48.6888 12.1964 48.8973 12.1271 49.0708 12.1964C49.1051 12.1271 49.0016 12.0228 49.0016 11.9878C49.1751 11.9178 49.3845 11.8836 49.5922 11.8836C49.4529 11.6057 49.1751 11.7793 49.0016 11.675C48.9323 11.605 48.8623 11.605 48.793 11.675C48.793 11.7092 48.8623 11.8143 48.8623 11.8836C48.793 11.9178 48.6888 11.8143 48.5845 11.8143H48.3759C48.1674 11.605 48.0981 11.1886 47.7503 11.0501V10.9801C48.3067 10.8758 48.8281 10.563 49.4537 10.668C49.523 10.668 49.628 10.668 49.663 10.7373L49.5237 10.8758C49.663 10.9801 49.8366 11.0844 50.0451 11.0844H50.0802C50.0451 10.9801 49.9759 10.8758 49.9409 10.7715C50.1494 10.8758 50.2879 10.9801 50.4622 11.1886C50.7401 11.7092 51.2272 12.1964 51.7486 12.5442C52.0264 12.7185 52.305 12.9613 52.5128 13.1699C53.8341 14.4905 54.3205 16.0539 54.3205 17.5137C54.3252 18.1705 54.2559 19.874 52.9345 21.1253V21.1253ZM39.8276 22.2381C39.7583 21.9253 39.4447 21.7167 39.549 21.3689C39.6532 21.2996 39.8618 21.2996 39.8968 21.0911C39.8618 21.056 39.8276 20.9868 39.7575 20.9868L39.6182 21.056C39.6182 20.9868 39.6525 20.8825 39.7225 20.7782L40.1396 20.6739C40.0353 20.8483 40.0353 21.091 40.0353 21.3004C40.0353 21.4047 40.0703 21.891 40.2439 22.2389H39.8276V22.2381V22.2381ZM46.3285 21.3689C46.3285 21.6817 46.3986 21.9253 46.4328 22.2381H46.0849C45.9807 22.0295 45.8422 21.786 45.8422 21.4389C45.8422 21.3689 45.8764 21.1961 45.9464 21.1961C46.0157 21.3004 46.0157 21.4047 46.12 21.4731C46.1894 21.3978 46.2268 21.2985 46.2242 21.1961C46.2242 21.1261 46.2242 20.9868 46.12 20.8833L46.4678 20.8483C46.4328 20.986 46.3285 21.1953 46.3285 21.3689ZM40.8353 22.2381H40.5225C40.4532 21.9253 40.3489 21.5774 40.3489 21.2646C40.4182 21.1603 40.4532 21.0553 40.5225 20.9868H40.5575L40.8353 21.2646H40.8703C40.8703 21.5774 40.8353 21.8902 40.8353 22.2381ZM41.3575 22.2381H41.0789C41.0789 22.2381 41.1832 21.4389 41.1832 21.2996C41.1832 21.2296 41.3224 21.0903 41.4267 21.0903C41.566 21.0903 41.6695 21.1603 41.6695 21.2996C41.6695 21.4724 41.461 21.8902 41.3575 22.2381ZM48.9712 10.977C48.7969 11.047 48.6934 11.1855 48.4849 11.1855C48.5891 11.2548 48.6584 11.2898 48.7277 11.2898C48.7969 11.2548 48.9012 11.1855 48.9712 11.2548C49.1098 11.2898 49.214 11.2548 49.3533 11.2548C49.2491 11.1513 49.1098 11.0812 48.9712 10.977ZM37.1156 11.1855C37.0113 11.2898 36.9763 11.3941 36.9062 11.4984L36.872 11.7069L37.1156 11.6026V11.1855V11.1855ZM50.3969 11.8112C50.3619 11.7061 50.2576 11.5676 50.1533 11.3941C49.9798 11.3941 49.8405 11.4633 49.7362 11.4984C49.8755 11.4984 50.014 11.6727 50.1191 11.8112C50.2584 11.8112 50.3619 11.9147 50.4669 12.0197L50.3969 11.8112ZM42.643 14.0703C42.2008 13.811 41.6957 13.6788 41.1832 13.6882V13.5839C41.4267 13.5489 41.6003 13.2711 41.6695 13.0625C41.8088 12.9232 41.9473 12.7497 41.9131 12.5411C41.9131 12.5411 41.9131 12.5061 41.9473 12.4368C41.9473 12.4018 41.9823 12.3326 41.9473 12.2975C41.9131 12.4018 41.808 12.4018 41.7388 12.4368C41.8431 12.1933 41.9131 11.8112 41.808 11.5676C41.9123 11.5676 41.9473 11.4984 42.0166 11.4984L42.2251 11.2898C42.4337 11.1855 42.3294 10.8727 42.4337 10.6641C42.3294 10.4556 42.2602 10.247 42.1209 10.1428C42.0166 9.9342 41.773 10.0035 41.5995 9.89996C41.3567 9.8307 41.1824 10.0035 41.0088 10.1085C40.9396 10.1085 40.9738 10.2128 40.9046 10.1428C40.8703 10.3163 40.8003 10.4213 40.766 10.5599C40.4532 10.5248 40.1396 10.5599 39.8618 10.7342C39.7575 10.6299 39.619 10.6299 39.4097 10.5599C39.3054 10.5599 39.2011 10.5599 39.0968 10.5248C38.9926 10.3513 38.9926 10.1427 38.784 10.1077C38.6797 10.0385 38.6797 10.0035 38.6797 9.93342C38.5755 9.89918 38.4362 9.82992 38.2976 9.82992C38.0891 9.72565 37.9498 9.89918 37.7763 9.93342C37.7412 10.0027 37.637 10.0385 37.5677 10.0385C37.4634 10.247 37.3591 10.3505 37.2899 10.5591C37.3249 10.7676 37.3942 10.8719 37.4634 11.0454C37.5335 11.184 37.7412 11.3925 37.9498 11.4626C37.8455 11.7053 37.8805 12.2267 37.9498 12.4353L37.8455 12.5045C37.8455 12.7481 38.0541 13.0259 38.2626 13.2687C38.3319 13.2687 38.3319 13.373 38.3669 13.443V13.5823C37.8798 13.5473 37.4276 13.6866 37.0455 13.8944C36.9413 13.9644 37.0105 14.0687 37.0105 14.1722C37.2729 13.9899 37.568 13.8601 37.8798 13.7901C38.0541 13.7901 38.1926 13.7551 38.3319 13.7901V14.0679C37.9848 14.2765 37.5669 14.3808 37.2541 14.6936C37.2541 14.7979 37.2191 14.9021 37.2541 14.9364C37.2541 14.9364 37.4276 14.7979 37.5319 14.7278C37.879 14.5193 38.0883 14.3107 38.4354 14.2064C38.5046 14.3107 38.5747 14.415 38.6789 14.5193L39.3046 14.2064C39.4439 14.1372 39.6174 14.2064 39.7217 14.1022L39.7567 13.7893C39.5824 13.7201 39.4789 13.5808 39.5132 13.3722C39.4439 13.3722 39.4089 13.4415 39.3046 13.4415C39.3046 13.4415 39.2003 13.3722 39.2003 13.3372C39.2003 13.2679 39.1653 13.1637 39.2346 13.1637C39.4089 13.0252 39.5824 13.0594 39.826 13.0594C40.0346 13.0594 40.4867 13.0594 40.4867 13.2679C40.4867 13.3722 40.4867 13.4423 40.4174 13.4765C40.3482 13.4765 40.2781 13.4765 40.2431 13.4423C40.2256 13.5277 40.1833 13.6062 40.1216 13.6678C40.0599 13.7295 39.9815 13.7718 39.896 13.7893L39.9303 13.9636C39.9303 14.0679 39.9645 14.2064 40.0696 14.2064C40.3824 14.2757 40.6602 14.415 40.9038 14.5885C40.973 14.4843 41.0773 14.38 41.1123 14.3107C41.5987 14.415 42.0166 14.7971 42.3637 15.1449V14.8321C42.0158 14.5193 41.5987 14.3107 41.1816 14.1022C41.2158 14.0671 41.2158 13.9629 41.2158 13.8594C41.7372 13.8936 42.2244 14.0679 42.6415 14.3107V14.0703H42.643V14.0703ZM36.9062 12.2283C36.8178 12.3778 36.7589 12.5429 36.7327 12.7147L36.9062 13.2703C36.9062 12.9574 37.0806 12.7147 37.0455 12.3318L37.1841 12.1232L36.9062 12.2283ZM42.5395 12.3326L42.3652 13.1318L42.643 13.0275C42.643 13.0275 42.7123 12.7497 42.7123 12.7147C42.7123 12.6112 42.608 12.4711 42.5395 12.3326ZM43.3737 14.1053C43.3387 14.0703 43.3387 13.8959 43.1994 13.966C43.1302 13.8959 43.0952 13.7917 43.0601 13.6882C43.0251 13.8625 43.0601 14.001 43.0601 14.1053C43.1644 14.3138 43.2687 14.4173 43.4772 14.4173C43.478 14.313 43.408 14.2088 43.3737 14.1053ZM40.5575 14.5916C40.1054 14.4173 39.4104 14.3138 38.819 14.6259C38.819 14.8344 38.854 15.1122 38.9926 15.2515L39.1669 15.0422C39.2019 15.0422 39.2019 15.0422 39.2019 15.1122V15.4593C39.3062 15.5294 39.4104 15.5644 39.5147 15.5644C39.5147 15.4593 39.619 15.355 39.654 15.3208C39.654 15.2515 39.654 15.1473 39.7233 15.1122L39.7583 15.1465C39.7583 15.2508 39.7583 15.355 39.8276 15.4593V15.5644C39.9661 15.6329 40.1054 15.5644 40.2096 15.5294C40.2096 15.355 40.2439 15.2515 40.2439 15.1465C40.2789 15.1465 40.2439 15.0422 40.2789 15.0422C40.3482 15.1465 40.4532 15.2515 40.4532 15.355C40.6618 15.2508 40.731 14.9029 40.766 14.6951C40.696 14.6259 40.6267 14.6259 40.5575 14.5916V14.5916ZM43.478 15.0087C43.3737 14.9387 43.2695 15.0087 43.0959 15.043C43.131 15.113 43.1652 15.1473 43.2002 15.2523H43.513C43.5823 15.2523 43.6866 15.3566 43.7558 15.2523C43.6165 15.2515 43.5815 15.113 43.478 15.0087ZM48.3448 15.113C48.2055 15.043 47.9627 15.1473 47.9627 14.9387C47.9147 14.9126 47.8609 14.8989 47.8063 14.8989C47.7516 14.8989 47.6979 14.9126 47.6499 14.9387C47.5106 15.0087 47.337 15.3208 47.4413 15.4251C47.4756 15.3558 47.7884 15.2866 47.8934 15.2866C48.102 15.2866 48.2755 15.3558 48.5191 15.4251C48.4751 15.3138 48.4165 15.2089 48.3448 15.113V15.113ZM42.7831 15.4601C42.6788 15.5301 42.6088 15.6336 42.5395 15.6686C42.6438 15.878 42.8874 15.7737 43.0959 15.7737L42.7831 15.4601ZM42.0174 15.8772C42.0516 15.5651 41.7746 15.5651 41.6003 15.4251C41.6695 15.5651 41.6695 15.7729 41.7746 15.9815C41.9139 16.0858 42.0524 16.2593 42.2609 16.19C42.1567 16.0858 42.0174 15.9815 42.0174 15.8772V15.8772ZM38.3319 15.5651C38.3669 15.8422 38.4712 16.0507 38.6097 16.2601L38.6789 15.7737L38.3319 15.5651ZM37.8455 15.6679V15.6329C37.7763 15.5644 37.672 15.4593 37.5327 15.4243C37.5327 15.5644 37.5669 15.7371 37.637 15.8764C37.7412 16.085 37.9848 16.2935 38.2276 16.3628C38.1934 16.0858 37.9848 15.8772 37.8455 15.6679ZM47.9977 15.6329C47.8234 15.6329 47.6499 15.7729 47.5456 15.8764C47.5106 15.9807 47.4763 16.085 47.5456 16.1885C47.6849 16.0492 47.8934 15.9457 48.032 15.9457C48.2055 15.9457 48.2748 15.9807 48.4841 15.9807C48.4849 15.8422 48.2413 15.6329 47.9977 15.6329ZM44.208 15.8772L43.9301 16.0507C44.1387 16.19 44.4165 16.1558 44.5558 16.0858C44.4259 16.0427 44.3072 15.9715 44.208 15.8772V15.8772ZM41.496 16.3636C41.461 16.155 41.4267 15.9465 41.3567 15.7379C41.2524 15.9807 41.1131 16.2943 41.3224 16.6064C41.4267 16.7807 41.6695 16.7106 41.8088 16.6764C41.7396 16.5721 41.531 16.5029 41.496 16.3636ZM37.0806 16.155C36.9857 16.2102 36.9122 16.2957 36.872 16.3978C36.9062 16.5021 36.9413 16.6064 36.9413 16.7099C37.0455 16.5013 37.2191 16.3978 37.3584 16.2585C37.2549 16.1893 37.1498 16.1893 37.0806 16.155ZM43.5473 16.2593C43.5473 16.2593 43.3379 16.3986 43.1994 16.3986C43.3737 16.5729 43.5815 16.6764 43.9644 16.6764L44.1387 16.6064C43.9644 16.5721 43.7216 16.3986 43.5473 16.2593V16.2593ZM40.766 16.155C40.696 16.2593 40.5917 16.2943 40.4875 16.4671C40.4532 16.6764 40.766 16.7099 40.9396 16.8141C40.8353 16.6064 40.8003 16.3986 40.766 16.155V16.155ZM48.9362 16.2943C48.8319 16.2943 48.7969 16.3636 48.6934 16.3636C48.5541 16.3636 48.6234 16.155 48.4849 16.155C48.4156 16.155 48.3456 16.2593 48.2413 16.2593C48.137 16.2593 47.9985 16.2943 47.8934 16.2943C47.7542 16.2943 47.7542 16.4678 47.5106 16.5029L47.5798 16.8499C47.7542 16.6764 48.1713 16.5029 48.3098 16.5029C48.5534 16.5029 49.0055 16.6422 49.3175 16.7807C49.2848 16.5721 49.1098 16.2943 48.9362 16.2943ZM39.3054 16.2943C39.2011 16.1893 39.0968 16.1893 38.9926 16.1893C38.9926 16.3986 39.1669 16.6064 39.3746 16.8149C39.4104 16.6064 39.3054 16.4678 39.3054 16.2943ZM39.7575 16.5721L39.8618 16.9192C40.1054 16.8141 40.1396 16.5021 40.1396 16.2585C40.0011 16.3986 39.8968 16.5029 39.7575 16.5721ZM46.6071 16.8149C46.5371 16.7106 46.4678 16.6764 46.3986 16.6064C46.1892 16.5721 46.0857 16.2943 45.8071 16.2943C46.0849 16.6064 46.2935 16.92 46.6071 17.1277V16.8149ZM44.7644 16.6764C44.7293 16.7807 44.7293 16.885 44.7293 16.9885C44.7293 17.092 44.8686 17.2663 44.8686 17.2663C44.9379 17.197 45.0079 17.162 45.0079 17.0577C45.0072 16.92 44.8686 16.7807 44.7644 16.6764ZM42.7481 16.6764C42.6438 16.7106 42.4703 16.7106 42.3302 16.8149C42.4345 16.92 42.5045 16.9892 42.7123 17.1277C42.8516 17.232 43.0952 17.232 43.2687 17.232C43.0259 17.0927 42.8516 16.8149 42.7481 16.6764V16.6764ZM37.5327 16.8149C37.5327 16.9892 37.4284 17.1978 37.4284 17.4063C37.4284 17.4063 37.5327 17.3363 37.5677 17.3021C37.7412 17.1277 37.8455 16.92 37.8455 16.7807C37.7412 16.7106 37.637 16.7807 37.5327 16.8149ZM49.3183 17.1978C49.179 17.1628 49.1098 17.0227 48.9362 17.0227C48.7619 17.0227 48.867 17.0927 48.6934 17.0927C48.5541 17.0927 48.4499 16.9885 48.3106 16.9885C48.102 16.9885 48.137 17.1628 47.6499 17.1628V17.5098C47.7277 17.5385 47.8107 17.5505 47.8934 17.5449C48.0327 17.5449 48.2063 17.4748 48.2063 17.3021C48.2063 17.1978 48.4156 17.3363 48.5191 17.3021C48.5191 17.3021 48.5884 17.1978 48.6934 17.1978C48.8319 17.1978 48.7977 17.3363 48.867 17.4063C48.9012 17.5106 49.1448 17.6149 49.3883 17.6149C49.3883 17.4414 49.3183 17.3021 49.3183 17.1978V17.1978ZM42.2609 17.4063L42.1216 17.1978H42.0174C41.8781 17.232 41.7045 17.232 41.496 17.3021C41.8088 17.5106 42.1216 17.7534 42.5388 17.6491H42.643C42.5327 17.544 42.4029 17.4616 42.2609 17.4063V17.4063ZM38.1583 17.232C38.0541 17.4414 37.8455 17.7534 37.5327 17.8577C37.7412 17.8577 37.9848 17.9277 38.1583 17.7534L38.3327 17.232C38.2626 17.232 38.2276 17.1978 38.1583 17.232ZM45.39 17.5449C45.3558 17.4406 45.39 17.3355 45.3558 17.3021C45.2857 17.3021 45.2515 17.232 45.2165 17.232C45.2165 17.232 45.1122 17.4748 45.1472 17.6491C45.1815 17.7884 45.3558 17.962 45.3558 17.962C45.39 17.962 45.4601 17.9269 45.4943 17.8569C45.5636 17.7534 45.4593 17.6491 45.39 17.5449ZM41.0789 17.5449C41.0096 17.5449 40.9404 17.5098 40.9746 17.4056L40.384 17.3021C40.3926 17.3544 40.4167 17.4029 40.4532 17.4414C40.696 17.5456 40.696 17.8234 40.9746 17.9627C41.0789 17.9627 41.2874 17.9277 41.3917 17.8577L41.0789 17.5449ZM39.0276 17.3363L38.7147 17.6491C38.5755 17.7184 38.472 17.7534 38.3677 17.8577C38.5762 17.9277 38.7498 17.8577 38.8891 17.8577C39.0976 17.7534 39.2019 17.5456 39.3062 17.3363H39.0276V17.3363ZM46.1892 17.9277C46.1892 17.9277 46.2242 17.7884 46.2935 17.7884C46.3277 17.7184 46.3978 17.7184 46.3978 17.6841C46.1884 17.5098 46.2235 17.1978 45.9799 17.1978C45.8756 17.0927 45.8414 17.0585 45.8414 16.9542C45.7021 16.8499 45.5285 16.8149 45.355 16.8149C45.4935 16.92 45.6678 16.9892 45.7021 17.1628C45.8414 17.4748 46.0149 17.7184 46.1192 18.0312C46.1884 18.2398 46.2235 18.4483 46.2935 18.6569C46.2935 18.7619 46.2935 18.8654 46.3978 18.8654C46.3978 18.6226 46.432 18.3441 46.432 18.1355C46.3986 18.032 46.2943 17.9978 46.1892 17.9277ZM39.549 17.7184C39.503 17.875 39.4197 18.0182 39.3062 18.1355C39.2369 18.2398 39.1326 18.2748 39.0976 18.3783C39.3062 18.274 39.5147 18.239 39.654 18.1697C39.8283 17.9269 39.9318 17.8569 39.9668 17.6484C39.8276 17.6491 39.7225 17.6491 39.549 17.7184V17.7184ZM48.867 17.8577C48.867 17.7184 48.5891 17.7184 48.3456 17.7184C48.2063 17.7184 47.9285 17.8234 47.8592 17.8577C47.8934 17.9978 47.9985 18.1355 47.9985 18.1355C48.2071 18.0662 48.3113 18.0312 48.4849 18.0312C48.6584 18.0312 48.7277 18.0662 48.7277 18.2055C48.7277 18.3098 48.9712 18.3441 49.0755 18.3791C49.0755 18.032 48.867 17.9627 48.867 17.8577ZM46.8157 17.8234C46.8157 17.7534 46.7114 17.7534 46.6421 17.7534L46.5379 17.8234C46.5379 17.8577 46.5729 17.8577 46.6079 17.8577L46.9207 18.4841C46.8865 18.344 46.955 18.2406 46.955 18.1013C46.9542 17.9978 46.8857 17.8927 46.8157 17.8234ZM45.0422 18.5868C45.0772 18.4833 45.0772 18.4133 45.0772 18.344C45.0772 18.1355 44.9379 18.032 44.9379 18.067C44.8686 18.1713 44.7293 18.2756 44.7293 18.4491C44.7293 18.5876 44.9379 18.6919 44.9379 18.6919C45.0072 18.7619 44.9037 18.7962 44.9037 18.8654C45.043 19.0055 45.1122 19.1783 45.1122 19.4218C45.1472 19.2133 45.2515 19.0055 45.2515 18.7962C45.2507 18.6919 45.0072 18.6919 45.0422 18.5868V18.5868ZM48.9012 18.6569C48.7619 18.6569 48.6926 18.5526 48.5541 18.5176C48.3448 18.4483 48.4148 18.3433 48.137 18.3433C47.9977 18.4483 47.9627 18.5526 47.9627 18.6561C47.9627 18.6561 47.9277 18.8647 47.9277 18.8989C48.067 18.8639 48.137 18.6903 48.2755 18.6903C48.7969 18.6903 48.6584 19.1767 48.9012 19.1767V18.6569V18.6569ZM40.8353 18.5526C40.731 18.5526 40.661 18.5868 40.5575 18.5868C40.5575 18.5868 40.5575 18.6919 40.5917 18.7619C40.661 18.8654 40.9046 18.9705 40.9746 18.9705H41.0096L40.8353 18.5526V18.5526ZM43.0601 18.6919C42.9909 18.6919 42.8516 18.6919 42.7823 18.6569C42.5388 18.3791 42.3644 18.8654 42.1216 18.7619C42.0174 18.8654 41.9131 18.9705 41.9131 19.074L41.9473 19.109C42.0866 19.074 42.2251 19.0047 42.3294 18.8997C42.5388 18.8647 42.7473 19.109 42.8858 18.9697C42.9551 18.8997 43.0243 19.0047 43.0594 19.0047C43.1636 19.1783 43.3022 19.1783 43.4765 19.1783C43.3737 19.0047 43.3037 18.7619 43.0601 18.6919V18.6919ZM45.9122 19.039C45.9814 18.8647 45.9122 18.6569 45.8772 18.5526C45.8772 18.4133 45.9122 18.2398 45.8429 18.1005C45.7737 18.2398 45.5301 18.2748 45.5301 18.4833C45.5301 18.5868 45.6344 18.6569 45.6344 18.7612C45.6344 18.8647 45.5994 19.004 45.5994 19.1082C45.5994 19.2125 45.7387 19.1425 45.8079 19.1775C45.9122 19.1775 45.8772 19.5246 45.8079 19.7339C45.8772 19.5946 46.1207 19.3518 46.1207 19.1775C46.12 19.074 45.9122 19.1433 45.9122 19.039ZM39.9311 18.7619C39.759 18.7963 39.5818 18.7963 39.4097 18.7619L39.6182 19.074C39.7575 19.109 39.896 19.109 40.0353 19.0047L39.9311 18.7619ZM38.2276 18.9705V18.8654C38.1583 18.7619 37.9848 18.6919 37.8455 18.5876C37.7412 18.3791 37.4284 18.4491 37.1498 18.3791L36.9062 18.6919V18.7619C37.0806 18.6919 37.2541 18.6919 37.3934 18.6919C37.5327 18.7619 37.6362 18.6919 37.7405 18.7962C37.7755 18.9005 37.8798 19.0055 38.0183 19.109C38.2268 19.109 38.4011 19.3518 38.4704 19.6304C38.4704 19.6304 38.5046 19.1783 38.5046 19.074C38.4362 19.039 38.2976 19.0047 38.2276 18.9705V18.9705ZM48.6234 19.2825C48.4491 19.2825 48.3456 19.109 48.1713 19.1783C48.067 19.109 47.9627 19.2133 47.8584 19.2133C47.8584 19.3176 47.7542 19.3176 47.7884 19.5253C47.9977 19.5253 48.2748 19.386 48.4148 19.5954C48.4841 19.6304 48.4491 19.9082 48.7277 19.9424C48.7619 19.7689 48.7969 19.7339 48.7969 19.5954C48.7456 19.4876 48.6877 19.3831 48.6234 19.2825V19.2825ZM43.5473 19.6304C43.2345 19.2825 42.7823 19.3176 42.3644 19.3176V19.2825C42.2602 19.2825 42.1216 19.2825 42.0166 19.3176C41.9123 19.3176 41.808 19.4218 41.6687 19.4218L41.4952 19.8389C41.7038 19.6304 41.9473 19.6304 42.1559 19.5261C42.2251 19.5962 42.1909 19.6312 42.2251 19.6312C42.3644 19.6312 42.538 19.6312 42.6773 19.5962C42.8508 19.5962 42.9901 19.5962 43.0944 19.6312C43.1987 19.8047 43.4072 19.8047 43.5807 19.909L43.5473 19.6304V19.6304ZM49.6319 19.3868C49.5276 19.5261 49.5276 19.6996 49.4234 19.8039L49.6669 20.1168C49.7712 19.9424 49.7712 19.874 49.7712 19.6646C49.7712 19.6304 49.6669 19.3868 49.6319 19.3868ZM38.1233 19.8389C38.0541 19.8039 37.9848 19.7347 38.019 19.6304C37.8798 19.5253 37.7412 19.4911 37.5669 19.2825C37.4626 19.2483 37.3934 19.109 37.2541 19.109C37.1498 19.0047 37.0105 19.0047 36.9062 19.0047C36.6977 19.0047 36.6977 19.2133 36.5934 19.3168C36.5934 19.3168 36.5934 19.386 36.6277 19.4211C36.802 19.386 36.9055 19.2818 37.0798 19.3168C37.2191 19.4911 37.3576 19.5946 37.5319 19.6989C37.5319 19.6989 37.949 19.8382 38.0183 19.9082C38.0533 19.9424 37.949 20.0125 37.949 20.0475C38.0883 20.1518 38.0183 20.3603 38.0883 20.4646L38.3311 20.221C38.2626 20.0475 38.3319 19.8389 38.1233 19.8389V19.8389ZM44.2772 19.7347C44.3115 19.5253 44.0336 19.3526 43.8944 19.1783L43.9294 19.2825C43.9986 19.6304 44.2072 19.9432 44.1029 20.3611C44.1722 20.3611 44.2072 20.4654 44.2772 20.5697H44.3115C44.3473 20.3261 44.3122 20.0475 44.2772 19.7347ZM48.2063 20.1168C48.137 20.0475 48.0327 20.1168 47.9635 20.0475C47.9985 19.9424 47.9985 19.9082 47.9985 19.8382C47.8942 19.8382 47.8592 19.8032 47.7549 19.7339C47.6857 19.7339 47.6507 19.7339 47.6156 19.8031L47.3028 20.116C47.4771 20.116 47.4421 20.0117 47.6857 20.0117C47.7549 20.0117 47.825 20.186 47.825 20.2895C48.0335 20.2895 48.1728 20.3596 48.3464 20.4638C48.3464 20.4638 48.4164 20.3938 48.4164 20.3596C48.4148 20.221 48.3106 20.1518 48.2063 20.1168ZM37.7412 20.4646L37.3591 20.3253C37.2899 20.2203 37.3249 20.186 37.3249 20.116C37.3249 19.9074 37.0813 19.9074 36.942 19.8031L36.7335 19.6989H36.5249C36.4814 19.7386 36.4465 19.7869 36.4225 19.8407C36.3985 19.8945 36.386 19.9528 36.3856 20.0117C36.4899 20.0467 36.4899 19.9417 36.5942 20.0117C36.8027 20.116 37.1156 20.151 37.4284 20.4638L37.672 21.0895L37.7763 20.7416L37.7412 20.4646V20.4646ZM49.4234 20.5339C49.3891 20.4646 49.4234 20.3603 49.4234 20.3253C49.4269 20.2527 49.4042 20.1812 49.3595 20.1238C49.3148 20.0664 49.2511 20.0269 49.1798 20.0125L49.0405 20.2553C49.1798 20.5681 49.3883 20.6724 49.3883 20.8467C49.4226 20.7767 49.4576 20.7416 49.5269 20.6381C49.5276 20.5689 49.4234 20.5689 49.4234 20.5339V20.5339ZM43.6866 20.5339C43.6866 20.3603 43.6173 20.2561 43.478 20.1518C43.2002 20.0475 42.9566 19.909 42.6438 19.909L42.366 19.9432C42.2267 20.0133 42.0532 19.9432 41.9139 20.0483L41.7396 20.3611C41.9139 20.2561 42.1567 20.3611 42.3302 20.2561C42.4345 20.1518 42.4345 20.3261 42.5045 20.3611C42.6438 20.4654 42.6788 20.7424 42.8874 20.6732C43.1652 20.7774 43.0959 21.0903 43.0959 21.2996L43.3387 21.1953C43.3037 21.0903 43.3737 20.9518 43.3037 20.8475C43.2345 20.6732 43.0952 20.6732 42.9909 20.5697C43.0952 20.3611 42.8866 20.3269 42.8516 20.2218L43.1644 20.2568C43.3029 20.3269 43.3379 20.4311 43.373 20.5697C43.6158 20.5697 43.6858 20.8825 43.7901 21.0911C43.8251 20.9518 43.8593 20.7782 43.8944 20.6739C43.9301 20.5689 43.7909 20.5689 43.6866 20.5339V20.5339ZM42.608 20.8475C42.5388 20.7774 42.4345 20.8475 42.3652 20.7774C42.3652 20.6732 42.296 20.6389 42.2259 20.5689C42.1567 20.5339 42.0516 20.5689 42.0516 20.5689L41.9473 20.6389C42.0166 20.6732 42.1559 20.8475 42.3294 20.8475C42.5037 20.8825 42.4337 21.1953 42.5388 21.2996L42.643 21.1953C42.678 21.0903 42.643 20.951 42.608 20.8475ZM36.4199 20.6732L36.5592 20.4646L36.3498 20.4296C36.1413 20.4646 36.037 20.4646 35.8285 20.6724C35.5849 20.9152 35.5506 21.5766 35.5506 21.8887C35.5506 21.8887 35.5506 21.9237 35.5849 21.9237C35.6541 21.7152 35.8635 21.5066 35.9678 21.298C36.002 21.1938 36.002 21.0887 36.107 21.0545C36.2814 21.0545 36.4199 21.1945 36.4199 21.1945C36.3849 21.4031 36.3156 21.6117 36.3156 21.8202C36.3156 21.8202 36.7677 21.4031 36.7677 21.0903C36.7677 20.8825 36.5592 20.7424 36.4199 20.6732ZM35.2728 20.6389C35.2728 20.5339 35.2728 20.3611 35.4121 20.3261L35.03 20.3611C34.9176 20.4856 34.824 20.6259 34.7522 20.7774C34.6822 20.9868 34.6129 21.2296 34.6129 21.4731C34.6129 21.6132 34.6472 21.856 34.7172 22.0303C34.8215 21.9253 34.9258 21.8902 35.03 21.821C34.8907 21.3689 34.9258 21.2646 35.0643 20.9868C35.2386 20.9868 35.3429 21.1611 35.3771 21.2996C35.4814 21.1953 35.5164 21.056 35.5164 20.8825C35.5156 20.7082 35.3421 20.6732 35.2728 20.6389V20.6389ZM34.3343 20.7424L33.9865 21.1603V21.751C34.0565 21.856 34.195 22.0295 34.2643 22.0295C34.2643 22.0295 34.2993 21.8895 34.2993 21.8202C34.2993 21.5774 34.195 21.4031 34.2993 21.1945C34.4036 21.1945 34.5079 21.2988 34.5429 21.2988C34.6122 21.0903 34.5429 20.8825 34.3343 20.7424ZM38.1233 11.0812C37.949 10.8727 37.7405 11.0812 37.637 10.7684C37.672 10.5248 37.7412 10.212 38.0541 10.1428H38.1583C38.3677 10.247 38.7848 10.3163 38.819 10.6641C38.6455 10.7342 38.2626 10.977 38.1233 11.0812ZM41.8088 11.2898H41.7045C41.6003 11.047 41.3224 10.7684 41.0781 10.6641C41.0781 10.4556 41.1481 10.3513 41.2867 10.247L41.5652 10.1428C41.7388 10.247 41.9131 10.3513 42.0174 10.4556C42.1567 10.6641 42.1216 10.9762 42.0516 11.1855C42.0174 11.2898 41.9131 11.1855 41.8088 11.2898ZM40.4875 11.3941C40.3482 11.3598 40.4532 11.0812 40.2439 11.0812C40.2096 11.0812 40.1746 11.0812 40.2096 11.047C40.2789 10.977 40.3489 11.047 40.4532 11.047C40.5917 10.977 40.5917 11.2556 40.766 11.2556C40.8003 11.2906 40.8353 11.2906 40.8353 11.3948L40.4875 11.3941ZM39.3404 11.3941H38.9225C38.9225 11.2898 39.0618 11.1855 39.2011 11.1513C39.3054 11.082 39.5139 10.977 39.6182 11.047C39.5154 11.1541 39.4224 11.2703 39.3404 11.3941V11.3941ZM39.2011 12.8539C39.0618 12.9582 38.9225 13.0625 38.9225 13.1668C38.784 13.236 38.6797 13.2711 38.5747 13.3403C38.4704 13.236 38.5747 13.0283 38.6097 12.9582C38.749 12.8197 38.9918 12.854 39.0268 12.6112C39.061 12.4368 39.061 12.3326 39.061 12.124C39.0268 12.0197 38.9918 12.1933 38.8875 12.124C38.7832 12.1933 38.7132 12.1933 38.6447 12.124C38.5747 12.0898 38.4704 12.0197 38.4704 11.9155C38.4162 11.912 38.3652 11.8889 38.3268 11.8505C38.2884 11.8121 38.2653 11.7611 38.2618 11.7069H39.1311C39.2354 11.7419 39.3046 11.812 39.3046 11.8812C39.3054 12.2283 39.2011 12.5411 39.2011 12.8539ZM41.2524 11.9155C41.1481 11.9155 41.1481 12.0898 41.0781 12.124C40.9738 12.2283 40.8003 12.1933 40.661 12.1933C40.5917 12.124 40.5567 12.089 40.5567 12.0197L40.4875 12.089C40.5567 12.2283 40.5567 12.4368 40.5567 12.6446L40.766 12.7489C40.766 13.0617 41.0781 12.9574 41.2524 13.131C41.2174 13.2353 41.1481 13.3395 41.0781 13.3738C40.9738 13.2695 40.8003 13.2345 40.661 13.1652C40.661 12.9567 40.4875 12.8524 40.3482 12.8182C40.3482 12.5053 40.3482 12.1925 40.2789 11.9139L40.3482 11.8797C40.3832 11.7754 40.5217 11.7754 40.626 11.7053L41.4259 11.7754C41.4952 11.8104 41.4259 11.8104 41.4259 11.8104C41.3917 11.9155 41.2874 11.9155 41.2524 11.9155ZM38.6797 13.966C38.5755 13.8959 38.6105 13.7917 38.6105 13.7566C38.7848 13.7917 38.9233 13.6874 39.0276 13.7917C38.9926 13.7917 38.819 13.8617 38.6797 13.966ZM40.5575 13.8617L40.5917 13.7917H40.9746V14.001L40.5575 13.8617V13.8617Z" fill="#DB812E"/>
</svg>
