<svg width="64" height="80" viewBox="0 0 69 87" fill="none" xmlns="http://www.w3.org/2000/svg">
<path d="M2.28076 66.0229H66.7192C67.272 66.0229 67.7192 65.5757 67.7192 65.0229C67.7192 64.4702 67.272 64.0229 66.7192 64.0229H39.3929L60.6909 55.9302C62.7209 55.2397 63.6722 52.9718 62.9175 51.1138C62.2886 49.5073 60.5923 48.5513 58.8823 48.8374C58.8403 48.8442 58.7993 48.854 58.7583 48.8667L47.3257 52.3315C47.3403 52.2036 47.3481 52.0737 47.3481 51.9438C47.3481 50.1079 45.854 48.6138 44.0181 48.6138H34.3979C33.8003 48.6138 33.2095 48.4087 32.7368 48.0376C32.6046 47.9324 25.5726 42.3344 25.436 42.2251C24.227 41.2505 22.7046 40.7134 21.1479 40.7134H17.3686V40.2769C17.3686 38.2759 15.7407 36.6479 13.7397 36.6479H5.00146C4.44873 36.6479 4.00146 37.0952 4.00146 37.6479V61.9214C4.00146 62.4741 4.44873 62.9214 5.00146 62.9214H13.7397C15.7407 62.9214 17.3687 61.2934 17.3687 59.2925V58.7036H20.0181C20.189 58.7036 20.3511 58.7495 20.5024 58.8413L29.1229 64.0229H2.28076C1.72803 64.0229 1.28076 64.4702 1.28076 65.0229C1.28076 65.5757 1.72803 66.0229 2.28076 66.0229ZM15.3687 59.2925C15.3687 60.1909 14.6382 60.9214 13.7397 60.9214H6.00146V38.6479H13.7397C14.6382 38.6479 15.3687 39.3784 15.3687 40.2769C15.3687 47.2004 15.3687 52.3625 15.3687 59.2925ZM20.0181 56.7036H17.3687V42.7134H21.148C22.2437 42.7134 23.315 43.0894 24.1675 43.771C24.1685 43.7729 24.1724 43.7759 24.1792 43.7808L24.1802 43.7817C24.1821 43.7827 24.1831 43.7837 24.1851 43.7857C24.187 43.7866 24.189 43.7886 24.1909 43.7905C24.9131 44.3637 21.5922 41.721 31.5015 49.6099C32.3257 50.2573 33.354 50.6138 34.398 50.6138H44.0181C44.7515 50.6138 45.3482 51.2105 45.3482 51.9439C45.3482 52.6412 44.7834 53.2739 44.0181 53.2739H35.478C34.9253 53.2739 34.478 53.7212 34.478 54.2739C34.478 54.8267 34.9253 55.2739 35.478 55.2739H44.0181C47.747 54.3747 43.8966 55.4418 59.27 50.8013C60.0259 50.6997 60.7788 51.1314 61.0571 51.8472C61.0591 51.8511 61.061 51.856 61.062 51.8609C61.3828 52.6469 61.0263 53.7033 60.0132 54.0493L34.8013 63.6284C33.8101 63.9732 32.7222 63.855 31.814 63.3062L21.5347 57.1275C21.0737 56.8501 20.5503 56.7036 20.0181 56.7036Z" fill="url(#paint0_linear)"/>
<path d="M22.0347 29.6372C21.4819 29.6372 21.0347 30.0845 21.0347 30.6372V37.6479C21.0347 38.2007 21.4819 38.6479 22.0347 38.6479H28.1978C28.7505 38.6479 29.1978 38.2007 29.1978 37.6479V30.6372C29.1978 30.0845 28.7505 29.6372 28.1978 29.6372H22.0347V29.6372ZM27.1977 36.6479H23.0347V31.6372H27.1977V36.6479Z" fill="url(#paint1_linear)"/>
<path d="M32.8481 23.0327C32.2954 23.0327 31.8481 23.48 31.8481 24.0327V37.6479C31.8481 38.2007 32.2954 38.6479 32.8481 38.6479H39.0112C39.564 38.6479 40.0112 38.2007 40.0112 37.6479V24.0327C40.0112 23.48 39.564 23.0327 39.0112 23.0327H32.8481ZM38.0112 36.6479H33.8481V25.0327H38.0112V36.6479Z" fill="url(#paint2_linear)"/>
<path d="M43.6626 25.6812C43.1099 25.6812 42.6626 26.1284 42.6626 26.6812V37.6479C42.6626 38.2007 43.1099 38.6479 43.6626 38.6479H49.8257C50.3784 38.6479 50.8257 38.2007 50.8257 37.6479V26.6812C50.8257 26.1284 50.3784 25.6812 49.8257 25.6812H43.6626V25.6812ZM48.8257 36.6479H44.6626V27.6812H48.8257V36.6479H48.8257Z" fill="url(#paint3_linear)"/>
<path d="M54.5757 38.648H60.5395C61.0923 38.648 61.5395 38.2007 61.5395 37.648V14.6577H63.9985C64.3774 14.6577 64.7241 14.4438 64.893 14.105C65.062 13.7661 65.0259 13.3608 64.7983 13.0571L58.3501 4.46533C58.1616 4.21435 57.8647 4.06592 57.5503 4.06592C57.5503 4.06592 57.5503 4.06592 57.5493 4.06592C57.2348 4.06592 56.939 4.21436 56.7495 4.46631L50.3159 13.0581C50.0894 13.3618 50.0532 13.7671 50.2222 14.105C50.3921 14.4439 50.7378 14.6577 51.1167 14.6577H53.5757V37.648C53.5757 38.2007 54.0229 38.648 54.5757 38.648ZM53.1147 12.6577L57.5513 6.73291L61.9975 12.6577H60.5395C59.9868 12.6577 59.5395 13.105 59.5395 13.6577V36.6479H55.5757V13.6577C55.5757 13.105 55.1284 12.6577 54.5757 12.6577H53.1147Z" fill="url(#paint4_linear)"/>
<path d="M41.5532 12.314C41.5532 7.16552 37.3647 2.97705 32.2163 2.97705C27.0669 2.97705 22.8784 7.16553 22.8784 12.314C22.8784 17.4634 27.0669 21.6518 32.2163 21.6518C33.3726 21.6518 34.4985 21.4429 35.5601 21.0327C39.1763 19.6482 41.5532 16.1767 41.5532 12.314ZM34.8423 19.1665C34.0083 19.4888 33.1255 19.6518 32.2163 19.6518C28.1704 19.6518 24.8784 16.3599 24.8784 12.314C24.8784 8.26806 28.1704 4.97705 32.2163 4.97705C36.2622 4.97705 39.5532 8.26807 39.5532 12.314C39.5532 15.3318 37.7011 18.0712 34.8423 19.1665Z" fill="url(#paint5_linear)"/>
<path d="M32.2144 11.313C31.6431 11.313 31.1782 10.8482 31.1782 10.2778C31.1782 9.70751 31.6431 9.24267 32.2134 9.24267C32.7837 9.24267 33.2485 9.70751 33.2485 10.2778C33.2485 10.8306 33.6958 11.2778 34.2485 11.2778C34.8013 11.2778 35.2485 10.8306 35.2485 10.2778C35.2485 8.95227 34.3894 7.83478 33.2028 7.42212L33.1978 7.03272C33.1909 6.48096 32.7183 6.06495 32.1851 6.04542C31.6323 6.05226 31.1909 6.50636 31.1978 7.05812L31.2026 7.42879C30.0269 7.84743 29.1782 8.96016 29.1782 10.2779C29.1782 11.9517 30.5405 13.313 32.2144 13.313C32.7856 13.313 33.2505 13.7779 33.2505 14.3482C33.2505 14.9185 32.7856 15.3833 32.2153 15.3833C31.645 15.3833 31.1802 14.9185 31.1802 14.3482C31.1802 13.7954 30.7329 13.3482 30.1802 13.3482C29.6274 13.3482 29.1802 13.7954 29.1802 14.3482C29.1802 15.6736 30.0392 16.7909 31.2255 17.2037L31.2309 17.5943C31.2388 18.1421 31.685 18.5806 32.2309 18.5806C32.2358 18.5806 32.2397 18.5806 32.2446 18.5806C32.7973 18.5728 33.2388 18.1187 33.2309 17.5669L33.2258 17.1973C34.4016 16.7787 35.2505 15.666 35.2505 14.3482C35.2505 12.6743 33.8882 11.313 32.2144 11.313Z" fill="url(#paint6_linear)"/>
<path d="M10.686 52.3872C9.05517 52.3872 7.729 53.7134 7.729 55.3442C7.729 56.9751 9.05517 58.3013 10.686 58.3013C12.3169 58.3013 13.6431 56.9751 13.6431 55.3442C13.6431 53.7134 12.3169 52.3872 10.686 52.3872ZM10.686 56.3013C10.1587 56.3013 9.729 55.8716 9.729 55.3442C9.729 54.8169 10.1587 54.3872 10.686 54.3872C11.2134 54.3872 11.6431 54.8169 11.6431 55.3442C11.6431 55.8716 11.2134 56.3013 10.686 56.3013Z" fill="url(#paint7_linear)"/>
<defs>
<linearGradient id="paint0_linear" x1="34.5" y1="36.6479" x2="34.5" y2="66.0229" gradientUnits="userSpaceOnUse">
<stop stop-color="#01BBE3"/>
<stop offset="1" stop-color="#006FD6"/>
</linearGradient>
<linearGradient id="paint1_linear" x1="25.1162" y1="29.6372" x2="25.1162" y2="38.6479" gradientUnits="userSpaceOnUse">
<stop stop-color="#01BBE3"/>
<stop offset="1" stop-color="#006FD6"/>
</linearGradient>
<linearGradient id="paint2_linear" x1="35.9297" y1="23.0327" x2="35.9297" y2="38.6479" gradientUnits="userSpaceOnUse">
<stop stop-color="#01BBE3"/>
<stop offset="1" stop-color="#006FD6"/>
</linearGradient>
<linearGradient id="paint3_linear" x1="46.7441" y1="25.6812" x2="46.7441" y2="38.6479" gradientUnits="userSpaceOnUse">
<stop stop-color="#01BBE3"/>
<stop offset="1" stop-color="#006FD6"/>
</linearGradient>
<linearGradient id="paint4_linear" x1="57.5576" y1="4.06592" x2="57.5576" y2="38.648" gradientUnits="userSpaceOnUse">
<stop stop-color="#01BBE3"/>
<stop offset="1" stop-color="#006FD6"/>
</linearGradient>
<linearGradient id="paint5_linear" x1="32.2158" y1="2.97705" x2="32.2158" y2="21.6518" gradientUnits="userSpaceOnUse">
<stop stop-color="#01BBE3"/>
<stop offset="1" stop-color="#006FD6"/>
</linearGradient>
<linearGradient id="paint6_linear" x1="32.2143" y1="6.04542" x2="32.2143" y2="18.5806" gradientUnits="userSpaceOnUse">
<stop stop-color="#01BBE3"/>
<stop offset="1" stop-color="#006FD6"/>
</linearGradient>
<linearGradient id="paint7_linear" x1="10.686" y1="52.3872" x2="10.686" y2="58.3013" gradientUnits="userSpaceOnUse">
<stop stop-color="#01BBE3"/>
<stop offset="1" stop-color="#006FD6"/>
</linearGradient>
</defs>
</svg>
