<svg width="64" height="80" viewBox="0 0 100 125" fill="none" xmlns="http://www.w3.org/2000/svg">
<path d="M43.6 73.5L43.3 72.4C43.2 71.8 43 71.1 42.8 70.5C42 66.9 40.2 64 37 61C36.8 60.8 36.5 60.5 36.1 60.2C35.4 59.5 34.5 58.8 34.1 58.2C33.1 57 32.6 56.2 31.9 54.9L31 53.6C29 50.4 27.7 48.4 26 47.5C25 47 23.6 46.8 22.2 47.1L19.3 41.9C18.1 39.8 16 38.6 13.6 38.6C11.3 38.6 9.09999 39.9 7.69999 42L7.59999 42.2C6.99999 43.2 6.79999 44.4 6.99999 45.6L11.3 70.1C11.9 73.6 13.8 76.7 16.5 78.9L25 86.6C25.2 86.8 25.4 86.9 25.5 87.1C26.1 87.8 26.5 88.8 26.5 90L26.6 91.9C26.8 95 29.3 97.5 32.5 97.6L42.3 97.7C44 97.7 45.6 97 46.7 95.8C47.8 94.6 48.4 92.9 48.2 91.2C47.8 87.4 47 82.2 45.1 78.6C44.6 76.8 44 75.1 43.6 73.5ZM11.3 44.2C11.9 43.2 12.7 42.7 13.7 42.7C14.5 42.7 15.3 43.2 15.7 43.9L18.5 49C17.2 50.2 16.7 51.9 17.2 53.5C17.7 55.1 18.9 58.1 20.7 62.3L20.9 62.8C20.9 62.8 20.9 62.8 20.9 62.9L25.5 69C26.1 69.9 27.4 70 28.2 69.4C28.6 69.1 28.9 68.6 29 68.1C29.1 67.6 28.9 67.1 28.6 66.7L24.5 61.3L24.3 60.9C23.7 59.5 21.7 54.9 21 52.6C20.9 52.2 20.9 52.1 21.2 51.9C21.7 51.5 22.6 51.1 23.4 51.1C23.8 51.1 24 51.2 24 51.2C24.8 51.6 26.3 54 27.4 55.8L28.2 57.2C29 58.5 29.6 59.5 30.7 60.9C31.3 61.7 32.3 62.5 33.2 63.4C33.5 63.7 33.8 63.9 34 64.2C36.6 66.6 38 68.8 38.7 71.7C38.9 72.3 39 73 39.2 73.6L39.4 74.6C39.8 76.5 40.5 78.4 41.4 80.3C42 81.3 42.5 82.7 42.9 84.4H28.9L28.8 84.3C28.5 84 28.3 83.7 28 83.4L19.4 75.6C17.4 74 16.1 71.8 15.6 69.3L11.3 44.8C11.2 44.5 11.2 44.3 11.3 44.2ZM43.8 92.8C43.5 93.2 43 93.4 42.5 93.4V94V93.4L32.8 93.3C31.9 93.3 31.1 92.6 31.1 91.6L31 89.7C31 89.3 30.9 88.9 30.9 88.5H44C44.2 89.7 44.3 90.7 44.4 91.4C44.3 91.9 44.1 92.4 43.8 92.8Z" fill="url(#paint0_linear)"/>
<path d="M92.3 42.1L92.2 41.9C90.8 39.7 88.7 38.5 86.3 38.5C84 38.5 81.8 39.8 80.6 41.8L77.8 47C76.3 46.8 75 47 74 47.5C72.3 48.4 71 50.4 69 53.6L68.8 53.9C68.5 54.3 68.3 54.7 68.1 55.1C67.4 56.3 66.9 57.1 65.9 58.4C65.5 58.9 64.6 59.7 63.9 60.4C63.6 60.7 63.3 61 63 61.2C59.8 64.1 58 67.1 57.1 70.7C56.9 71.3 56.8 71.9 56.7 72.5L56.4 73.6C56 75.2 55.5 76.9 54.8 78.4C52.9 82 52 87.3 51.7 91C51.5 92.7 52.1 94.3 53.2 95.6C54.3 96.8 55.9 97.5 57.6 97.5L67.4 97.4C70.5 97.4 73.1 94.9 73.3 91.7L73.4 89.8C73.5 88.6 73.8 87.6 74.4 86.9C74.6 86.7 74.8 86.5 74.9 86.3L83.4 78.6C86.1 76.4 88 73.3 88.6 69.8L92.9 45.3C93.1 44.3 92.9 43.1 92.3 42.1ZM69.3 88.4C69.2 88.8 69.2 89.2 69.2 89.6L69 91.6C69 92.5 68.2 93.3 67.3 93.3L57.5 93.4C57 93.4 56.5 93.2 56.2 92.8C55.9 92.4 55.7 91.9 55.8 91.4C55.9 90.7 56 89.7 56.2 88.5H69.3V88.4ZM78.9 52.6C78.2 54.8 76.2 59.4 75.6 60.8L71.3 66.6C71 67 70.9 67.5 71 68C71.1 68.5 71.3 69 71.8 69.3C72.7 69.9 73.9 69.8 74.5 68.9L79.1 62.8C79.1 62.8 79.1 62.7 79.2 62.6L79.4 62.2C81.2 58 82.3 55 82.9 53.4C83.4 51.8 82.9 50.2 81.6 48.9L84.4 43.8C84.8 43.1 85.6 42.6 86.4 42.6C87.3 42.6 88.1 43.1 88.7 44.1C88.8 44.3 88.8 44.5 88.8 44.7L84.5 69.2C84 71.7 82.7 73.9 80.7 75.5L72 83.3C71.7 83.6 71.4 83.9 71.2 84.2L71.1 84.3H57C57.4 82.6 57.9 81.3 58.5 80.2C59.3 78.3 60 76.4 60.4 74.5L60.6 73.5C60.7 72.9 60.9 72.3 61.1 71.7C61.8 68.8 63.2 66.6 65.8 64.2C66.1 64 66.4 63.7 66.7 63.4C67.6 62.6 68.5 61.8 69.1 61C70.3 59.5 70.9 58.5 71.7 57.3L72.5 55.9C73.6 54.1 75.1 51.7 75.9 51.3C76 51.3 76.2 51.2 76.5 51.2C77.3 51.2 78.2 51.5 78.7 52C79.1 52.1 79.1 52.1 78.9 52.6Z" fill="url(#paint1_linear)"/>
<path d="M47.5 32.4C47.9 32.8 48.4 33 48.9 33C49.4 33 50 32.8 50.3 32.4L55.1 27.3C55.5 26.9 55.6 26.4 55.6 25.9C55.6 25.4 55.4 24.9 55 24.5C54.6 24.1 54.1 23.9 53.6 24C53.1 24 52.6 24.2 52.2 24.6L48.9 28.2L47.7 26.9C47 26.1 45.7 26.1 44.9 26.8C44.1 27.5 44.1 28.8 44.8 29.6L47.5 32.4Z" fill="url(#paint2_linear)"/>
<path d="M26.9 34.2L28.2 34.5C29.3 34.8 30.1 35.5 30.6 36.6C31 37.6 30.9 38.8 30.4 39.7L29.7 40.8C28.8 42.3 29 44.2 30.3 45.4L33.1 48.2C34.3 49.4 36.2 49.7 37.7 48.8L38.8 48.1C39.8 47.5 40.9 47.5 42 47.9C43 48.3 43.8 49.2 44 50.3L44.3 51.6C44.7 53.3 46.2 54.5 48 54.5H52C53.7 54.5 55.3 53.3 55.7 51.6L56 50.3C56.3 49.2 57 48.4 58.1 47.9C59.1 47.5 60.3 47.6 61.2 48.1L62.3 48.8C63.8 49.7 65.7 49.5 66.9 48.2L69.7 45.4C70.9 44.2 71.2 42.3 70.3 40.8L69.6 39.7C69 38.8 69 37.6 69.4 36.5C69.8 35.5 70.7 34.7 71.8 34.5L73.1 34.2C74.8 33.8 76 32.3 76 30.5V26.5C76 24.8 74.8 23.2 73.1 22.8L71.8 22.5C70.7 22.2 69.9 21.5 69.4 20.4C69 19.4 69.1 18.2 69.6 17.3L70.3 16.2C71.2 14.7 71 12.8 69.7 11.6L67 8.7C65.8 7.5 63.9 7.2 62.4 8.1L61.3 8.8C60.3 9.4 59.1 9.5 58 9C57 8.6 56.2 7.7 56 6.6L55.7 5.3C55.3 3.6 53.8 2.4 52 2.4H48C46.3 2.4 44.7 3.6 44.3 5.3L44 6.6C43.7 7.7 43 8.5 41.9 9C40.9 9.4 39.7 9.3 38.8 8.8L37.7 8.1C36.2 7.2 34.3 7.4 33.1 8.7L30.3 11.5C29.1 12.7 28.8 14.6 29.7 16.1L30.4 17.2C31 18.1 31 19.3 30.6 20.4C30.2 21.4 29.3 22.2 28.2 22.4L26.9 22.7C25.2 23.1 24 24.6 24 26.4V30.4C24 32.2 25.2 33.7 26.9 34.2ZM33.9 15.1L33.4 14.2L35.8 11.8L36.7 12.3C38.8 13.5 41.4 13.7 43.6 12.8C45.8 11.9 47.5 9.9 48.1 7.6L48.3 6.6H51.7L51.9 7.6C52.5 9.9 54.2 11.9 56.5 12.8C58.8 13.7 61.3 13.6 63.4 12.3L64.3 11.8L66.7 14.2L66.2 15.1C64.9 17.2 64.8 19.8 65.7 22C66.6 24.2 68.6 25.9 70.9 26.5L71.9 26.7V30.1L70.9 30.3C68.6 30.9 66.6 32.6 65.7 34.9C64.8 37.1 64.9 39.7 66.2 41.8L66.7 42.7L64.3 45.1L63.4 44.6C61.3 43.3 58.7 43.2 56.5 44.1C54.3 45 52.6 47 52 49.3L51.8 50.3H48.4L48.2 49.3C47.6 47 45.9 45 43.6 44.1C41.4 43.2 38.8 43.4 36.7 44.6L35.8 45.1L33.4 42.7L33.9 41.8C35.1 39.7 35.3 37.1 34.4 34.9C33.5 32.7 31.5 31 29.2 30.4L28.2 30.2V26.8L29.2 26.6C31.5 26 33.5 24.3 34.4 22C35.3 19.8 35.1 17.2 33.9 15.1Z" fill="url(#paint3_linear)"/>
<path d="M50 42C57.4 42 63.5 35.9 63.5 28.5C63.5 21.1 57.4 15 50 15C42.6 15 36.5 21 36.5 28.5C36.5 36 42.6 42 50 42ZM50 19.1C55.2 19.1 59.3 23.3 59.3 28.4C59.3 33.5 55.1 37.7 50 37.7C44.9 37.7 40.7 33.5 40.7 28.4C40.7 23.3 44.8 19.1 50 19.1Z" fill="url(#paint4_linear)"/>
<defs>
<linearGradient id="paint0_linear" x1="27.5815" y1="38.6" x2="27.5815" y2="97.7" gradientUnits="userSpaceOnUse">
<stop stop-color="#01BBE3"/>
<stop offset="1" stop-color="#006FD6"/>
</linearGradient>
<linearGradient id="paint1_linear" x1="72.3184" y1="38.5" x2="72.3184" y2="97.5" gradientUnits="userSpaceOnUse">
<stop stop-color="#01BBE3"/>
<stop offset="1" stop-color="#006FD6"/>
</linearGradient>
<linearGradient id="paint2_linear" x1="49.9434" y1="23.9745" x2="49.9434" y2="33" gradientUnits="userSpaceOnUse">
<stop stop-color="#01BBE3"/>
<stop offset="1" stop-color="#006FD6"/>
</linearGradient>
<linearGradient id="paint3_linear" x1="50" y1="2.4" x2="50" y2="54.5" gradientUnits="userSpaceOnUse">
<stop stop-color="#01BBE3"/>
<stop offset="1" stop-color="#006FD6"/>
</linearGradient>
<linearGradient id="paint4_linear" x1="50" y1="15" x2="50" y2="42" gradientUnits="userSpaceOnUse">
<stop stop-color="#01BBE3"/>
<stop offset="1" stop-color="#006FD6"/>
</linearGradient>
</defs>
</svg>
