<svg width="64" height="80" viewBox="0 0 46 58" fill="none" xmlns="http://www.w3.org/2000/svg">
<path d="M34.138 17.105C34.115 17.38 34.319 17.622 34.594 17.645C35.586 17.728 36.175 17.941 36.447 18.313C36.876 18.901 36.709 20.135 36.325 21.806C36.104 22.767 35.696 23.431 35.113 23.78C34.349 24.236 33.502 24.012 33.493 24.009C33.224 23.934 32.952 24.088 32.877 24.352C32.801 24.618 32.954 24.894 33.219 24.971C33.244 24.978 33.562 25.067 34.016 25.067C34.464 25.067 35.044 24.981 35.61 24.648C36.445 24.156 37.013 23.275 37.299 22.03C37.768 19.985 37.911 18.624 37.254 17.724C36.792 17.092 35.998 16.76 34.677 16.649C34.41 16.629 34.161 16.831 34.138 17.105Z" fill="url(#paint0_linear)"/>
<path d="M31.872 32.54C31.7 32.488 31.552 32.444 31.435 32.405C30.717 32.166 29.817 30.387 29.315 28.941C30.008 28.159 30.609 27.37 31.107 26.714L31.523 26.169C33.054 24.192 33.526 17.643 33.642 15.484C34.408 14.755 35.735 12.843 35.592 8.404C35.445 3.841 32.275 2.34 30.429 2.144C27.766 0.791001 24.714 0.0470009 21.812 0.0470009C18.399 0.0470009 15.514 1.061 13.896 2.83C9.94401 7.15 11.607 14.878 11.68 15.205C11.757 15.553 12.044 15.822 12.383 15.933C12.484 17.588 12.74 20.707 13.315 23.172C13.652 23.345 13.929 23.628 14.058 23.997C14.213 24.149 14.762 24.423 15.893 24.687C15.083 23.193 14.565 18.813 14.377 15.771C15.83 15.463 17.52 14.885 18.713 14.438C18.592 14.725 18.438 15.029 18.273 15.293C18.04 15.667 18.077 16.149 18.367 16.481C18.562 16.704 18.839 16.824 19.121 16.824C19.259 16.824 19.399 16.795 19.531 16.736C23.524 14.939 27.47 13.2 28.387 12.796C31.099 12.88 31.585 14.634 31.66 15.037C31.51 18.241 30.916 23.683 29.94 24.943L29.512 25.504C28.08 27.391 25.684 30.548 22.998 30.548C21.408 30.548 19.92 29.439 18.673 28.144C17.473 28.027 16.475 27.873 15.65 27.697C15.968 28.1 16.309 28.518 16.682 28.939C16.18 30.385 15.28 32.164 14.562 32.403C14.445 32.442 14.298 32.486 14.125 32.538C11.625 33.293 4.01901 35.59 4.01901 44.951C4.01901 45.503 4.46701 45.951 5.01901 45.951C5.57101 45.951 6.01901 45.503 6.01901 44.951C6.01901 37.076 12.328 35.171 14.703 34.453C14.897 34.394 15.063 34.344 15.194 34.3C16.63 33.822 17.653 31.916 18.236 30.49C19.585 31.655 21.18 32.547 22.997 32.547C24.814 32.547 26.409 31.654 27.758 30.49C28.341 31.915 29.364 33.822 30.8 34.3C30.931 34.344 31.097 34.394 31.291 34.453C33.666 35.17 39.975 37.076 39.975 44.951C39.975 45.503 40.423 45.951 40.975 45.951C41.527 45.951 41.975 45.503 41.975 44.951C41.978 35.592 34.372 33.294 31.872 32.54ZM28.186 10.794C28.047 10.794 27.911 10.823 27.784 10.878C27.784 10.878 24.638 12.26 20.939 13.914C21.01 13.356 20.946 12.8 20.616 12.346C20.423 12.081 20.119 11.934 19.807 11.934C19.678 11.934 19.548 11.959 19.423 12.011C18.289 12.483 15.34 13.604 13.486 13.909C13.198 11.926 12.801 6.991 15.374 4.179C16.596 2.844 19.003 2.047 21.814 2.047C24.466 2.047 27.263 2.744 29.688 4.01C29.816 4.077 29.957 4.115 30.101 4.122C30.238 4.129 33.462 4.339 33.595 8.467C33.669 10.753 33.31 12.168 32.937 13.009C32.16 11.866 30.698 10.794 28.186 10.794Z" fill="url(#paint1_linear)"/>
<path d="M10.39 24.648C11.132 25.086 11.898 25.096 12.36 25.047C13.429 26.644 17.694 27.174 21.383 27.326C21.584 28.034 22.229 28.556 23 28.556C23.931 28.556 24.688 27.799 24.688 26.868C24.688 25.937 23.931 25.18 23 25.18C22.259 25.18 21.636 25.662 21.409 26.326C16.655 26.127 13.417 25.362 13.123 24.351C13.046 24.088 12.769 23.936 12.508 24.009C12.499 24.012 11.652 24.236 10.888 23.78C10.304 23.431 9.896 22.767 9.676 21.806C9.292 20.135 9.124 18.901 9.553 18.313C9.825 17.941 10.414 17.728 11.406 17.645C11.681 17.622 11.885 17.38 11.862 17.105C11.839 16.83 11.595 16.628 11.322 16.649C10.002 16.76 9.207 17.092 8.745 17.724C8.088 18.625 8.231 19.985 8.701 22.03C8.987 23.276 9.555 24.156 10.39 24.648ZM23 26.18C23.379 26.18 23.688 26.489 23.688 26.868C23.688 27.247 23.379 27.557 23 27.557C22.621 27.557 22.312 27.248 22.312 26.869C22.312 26.49 22.621 26.18 23 26.18Z" fill="url(#paint2_linear)"/>
<defs>
<linearGradient id="paint0_linear" x1="35.2785" y1="16.6476" x2="35.2785" y2="25.067" gradientUnits="userSpaceOnUse">
<stop stop-color="#01BBE3"/>
<stop offset="1" stop-color="#006FD6"/>
</linearGradient>
<linearGradient id="paint1_linear" x1="22.997" y1="0.0470009" x2="22.997" y2="45.951" gradientUnits="userSpaceOnUse">
<stop stop-color="#01BBE3"/>
<stop offset="1" stop-color="#006FD6"/>
</linearGradient>
<linearGradient id="paint2_linear" x1="16.4938" y1="16.6475" x2="16.4938" y2="28.556" gradientUnits="userSpaceOnUse">
<stop stop-color="#01BBE3"/>
<stop offset="1" stop-color="#006FD6"/>
</linearGradient>
</defs>
</svg>
